<svg width="107" height="134" viewBox="0 0 107 134" fill="none" xmlns="http://www.w3.org/2000/svg">
<g filter="url(#filter0_d_4_1109)">
<rect x="15.3518" y="15" width="90.7839" height="119" rx="10" fill="#95BDD6" fill-opacity="0.3" shape-rendering="crispEdges"/>
</g>
<path d="M54.4 69L53 67.6L62.6 58H60V60H58V56H63.825C64.0917 56 64.35 56.05 64.6 56.15C64.85 56.25 65.0667 56.3917 65.25 56.575L68.25 59.55C68.7 60 69.25 60.35 69.9 60.6C70.55 60.85 71.25 60.9833 72 61V63C70.9667 63 70.0292 62.8417 69.1875 62.525C68.3458 62.2083 67.6 61.7333 66.95 61.1L65.95 60.05L63.75 62.25L66 64.5L59.45 68.275L58.45 66.55L62.75 64.075L61.05 62.375L54.4 69ZM52 62V60H57V62H52ZM50 59V57H55V59H50ZM68.475 57C67.925 57 67.45 56.8042 67.05 56.4125C66.65 56.0208 66.45 55.55 66.45 55C66.45 54.45 66.65 53.9792 67.05 53.5875C67.45 53.1958 67.925 53 68.475 53C69.025 53 69.5 53.1958 69.9 53.5875C70.3 53.9792 70.5 54.45 70.5 55C70.5 55.55 70.3 56.0208 69.9 56.4125C69.5 56.8042 69.025 57 68.475 57ZM52 56V54H57V56H52Z" fill="#54798F"/>
<path d="M32.7708 94.8765L29.7971 103.503H27.9993L31.7454 93.5503H32.8938L32.7708 94.8765ZM35.259 103.503L32.2786 94.8765L32.1487 93.5503H33.304L37.0637 103.503H35.259ZM35.1155 99.812V101.172H29.7014V99.812H35.1155ZM42.5256 101.972V93.0034H44.1799V103.503H42.6829L42.5256 101.972ZM37.7131 99.8872V99.7437C37.7131 99.1831 37.7792 98.6727 37.9114 98.2124C38.0435 97.7476 38.2349 97.3488 38.4856 97.0161C38.7362 96.6789 39.0416 96.4214 39.4016 96.2437C39.7616 96.0614 40.1672 95.9702 40.6184 95.9702C41.065 95.9702 41.4569 96.0568 41.7942 96.23C42.1314 96.4032 42.4185 96.6515 42.6555 96.9751C42.8925 97.2941 43.0816 97.6769 43.2229 98.1235C43.3642 98.5656 43.4644 99.0578 43.5237 99.6001V100.058C43.4644 100.587 43.3642 101.07 43.2229 101.507C43.0816 101.945 42.8925 102.323 42.6555 102.642C42.4185 102.961 42.1292 103.207 41.7874 103.38C41.4501 103.554 41.0559 103.64 40.6047 103.64C40.1581 103.64 39.7548 103.547 39.3948 103.36C39.0393 103.173 38.7362 102.911 38.4856 102.574C38.2349 102.236 38.0435 101.84 37.9114 101.384C37.7792 100.924 37.7131 100.425 37.7131 99.8872ZM39.3606 99.7437V99.8872C39.3606 100.224 39.3902 100.539 39.4495 100.831C39.5133 101.122 39.6112 101.38 39.7434 101.603C39.8756 101.822 40.0465 101.995 40.2561 102.123C40.4703 102.246 40.7255 102.307 41.0217 102.307C41.3954 102.307 41.703 102.225 41.9446 102.061C42.1861 101.897 42.3752 101.676 42.512 101.398C42.6532 101.115 42.7489 100.801 42.7991 100.455V99.2173C42.7717 98.9484 42.7148 98.6978 42.6282 98.4653C42.5461 98.2329 42.4345 98.0301 42.2932 97.8569C42.1519 97.6792 41.9765 97.5425 41.7668 97.4468C41.5618 97.3465 41.318 97.2964 41.0354 97.2964C40.7346 97.2964 40.4794 97.3602 40.2698 97.4878C40.0601 97.6154 39.887 97.7909 39.7502 98.0142C39.6181 98.2375 39.5201 98.4972 39.4563 98.7935C39.3925 99.0897 39.3606 99.4064 39.3606 99.7437ZM48.3088 102.198L50.1204 96.1069H51.8293L49.259 103.503H48.1926L48.3088 102.198ZM46.9211 96.1069L48.7668 102.225L48.8557 103.503H47.7893L45.2053 96.1069H46.9211ZM56.0129 103.64C55.4661 103.64 54.9716 103.551 54.5295 103.374C54.092 103.191 53.7183 102.938 53.4084 102.615C53.1031 102.291 52.8684 101.911 52.7043 101.473C52.5403 101.036 52.4583 100.564 52.4583 100.058V99.7847C52.4583 99.2059 52.5426 98.6818 52.7112 98.2124C52.8798 97.743 53.1145 97.342 53.4153 97.0093C53.7161 96.672 54.0715 96.4146 54.4817 96.2368C54.8918 96.0591 55.3362 95.9702 55.8147 95.9702C56.3433 95.9702 56.8059 96.0591 57.2024 96.2368C57.5989 96.4146 57.927 96.6652 58.1868 96.9888C58.4511 97.3078 58.6471 97.6883 58.7747 98.1304C58.9068 98.5724 58.9729 99.0601 58.9729 99.5933V100.297H53.2581V99.1147H57.3459V98.9849C57.3368 98.6886 57.2776 98.4106 57.1682 98.1509C57.0634 97.8911 56.9016 97.6815 56.6829 97.522C56.4641 97.3625 56.1724 97.2827 55.8079 97.2827C55.5344 97.2827 55.2906 97.342 55.0764 97.4604C54.8668 97.5744 54.6913 97.7407 54.55 97.9595C54.4088 98.1782 54.2994 98.4425 54.2219 98.7524C54.149 99.0578 54.1125 99.4019 54.1125 99.7847V100.058C54.1125 100.382 54.1558 100.682 54.2424 100.96C54.3336 101.234 54.4657 101.473 54.6389 101.678C54.8121 101.883 55.0217 102.045 55.2678 102.164C55.5139 102.278 55.7942 102.334 56.1086 102.334C56.5051 102.334 56.8583 102.255 57.1682 102.095C57.4781 101.936 57.747 101.71 57.9749 101.418L58.843 102.259C58.6835 102.492 58.4762 102.715 58.2209 102.929C57.9657 103.139 57.6536 103.31 57.2844 103.442C56.9198 103.574 56.496 103.64 56.0129 103.64ZM61.8918 97.686V103.503H60.2444V96.1069H61.7961L61.8918 97.686ZM61.5979 99.5317L61.0647 99.5249C61.0693 99.0008 61.1422 98.52 61.2834 98.0825C61.4293 97.645 61.6298 97.269 61.885 96.9546C62.1448 96.6401 62.4547 96.3986 62.8147 96.23C63.1747 96.0568 63.5758 95.9702 64.0178 95.9702C64.3733 95.9702 64.6946 96.0203 64.9817 96.1206C65.2734 96.2163 65.5217 96.3735 65.7268 96.5923C65.9364 96.811 66.0959 97.0959 66.2053 97.4468C66.3147 97.7931 66.3694 98.2192 66.3694 98.7251V103.503H64.7151V98.7183C64.7151 98.3628 64.6627 98.0825 64.5579 97.8774C64.4576 97.6678 64.3095 97.5197 64.1135 97.4331C63.9221 97.342 63.6829 97.2964 63.3958 97.2964C63.1132 97.2964 62.8603 97.3556 62.637 97.4741C62.4137 97.5926 62.2245 97.7544 62.0696 97.9595C61.9192 98.1646 61.803 98.4015 61.7209 98.6704C61.6389 98.9393 61.5979 99.2264 61.5979 99.5317ZM71.4417 96.1069V97.3101H67.2717V96.1069H71.4417ZM68.4749 94.2954H70.1223V101.459C70.1223 101.687 70.1542 101.863 70.218 101.986C70.2864 102.104 70.3798 102.184 70.4983 102.225C70.6168 102.266 70.7558 102.287 70.9153 102.287C71.0292 102.287 71.1386 102.28 71.2434 102.266C71.3482 102.252 71.4325 102.239 71.4963 102.225L71.5032 103.483C71.3665 103.524 71.2069 103.56 71.0247 103.592C70.8469 103.624 70.6418 103.64 70.4094 103.64C70.0312 103.64 69.6962 103.574 69.4045 103.442C69.1129 103.305 68.885 103.084 68.7209 102.779C68.5569 102.473 68.4749 102.068 68.4749 101.562V94.2954ZM77.1633 101.76V96.1069H78.8176V103.503H77.259L77.1633 101.76ZM77.3958 100.222L77.9495 100.208C77.9495 100.705 77.8948 101.163 77.7854 101.583C77.676 101.997 77.5074 102.36 77.2795 102.669C77.0517 102.975 76.76 103.214 76.4045 103.387C76.0491 103.556 75.623 103.64 75.1262 103.64C74.7662 103.64 74.4358 103.588 74.135 103.483C73.8342 103.378 73.5745 103.216 73.3557 102.998C73.1415 102.779 72.9752 102.494 72.8567 102.143C72.7382 101.792 72.679 101.373 72.679 100.885V96.1069H74.3264V100.899C74.3264 101.168 74.3583 101.393 74.4221 101.576C74.4859 101.753 74.5725 101.897 74.6819 102.006C74.7913 102.116 74.9189 102.193 75.0647 102.239C75.2105 102.284 75.3655 102.307 75.5295 102.307C75.9989 102.307 76.3681 102.216 76.637 102.034C76.9104 101.847 77.1041 101.596 77.218 101.282C77.3365 100.967 77.3958 100.614 77.3958 100.222ZM82.1604 97.5151V103.503H80.5129V96.1069H82.0852L82.1604 97.5151ZM84.4231 96.0591L84.4094 97.5903C84.3092 97.5721 84.1998 97.5584 84.0813 97.5493C83.9674 97.5402 83.8534 97.5356 83.7395 97.5356C83.4569 97.5356 83.2086 97.5767 82.9944 97.6587C82.7802 97.7362 82.6002 97.8501 82.4543 98.0005C82.3131 98.1463 82.2037 98.3241 82.1262 98.5337C82.0487 98.7433 82.0032 98.978 81.9895 99.2378L81.6135 99.2651C81.6135 98.8003 81.6591 98.3696 81.7502 97.9731C81.8414 97.5767 81.9781 97.228 82.1604 96.9272C82.3472 96.6265 82.5797 96.3918 82.8577 96.2231C83.1402 96.0545 83.4661 95.9702 83.8352 95.9702C83.9355 95.9702 84.0426 95.9793 84.1565 95.9976C84.275 96.0158 84.3639 96.0363 84.4231 96.0591ZM88.5793 103.64C88.0325 103.64 87.538 103.551 87.0959 103.374C86.6584 103.191 86.2847 102.938 85.9749 102.615C85.6695 102.291 85.4348 101.911 85.2708 101.473C85.1067 101.036 85.0247 100.564 85.0247 100.058V99.7847C85.0247 99.2059 85.109 98.6818 85.2776 98.2124C85.4462 97.743 85.6809 97.342 85.9817 97.0093C86.2825 96.672 86.6379 96.4146 87.0481 96.2368C87.4583 96.0591 87.9026 95.9702 88.3811 95.9702C88.9097 95.9702 89.3723 96.0591 89.7688 96.2368C90.1653 96.4146 90.4934 96.6652 90.7532 96.9888C91.0175 97.3078 91.2135 97.6883 91.3411 98.1304C91.4732 98.5724 91.5393 99.0601 91.5393 99.5933V100.297H85.8245V99.1147H89.9124V98.9849C89.9032 98.6886 89.844 98.4106 89.7346 98.1509C89.6298 97.8911 89.468 97.6815 89.2493 97.522C89.0305 97.3625 88.7389 97.2827 88.3743 97.2827C88.1008 97.2827 87.857 97.342 87.6428 97.4604C87.4332 97.5744 87.2577 97.7407 87.1165 97.9595C86.9752 98.1782 86.8658 98.4425 86.7883 98.7524C86.7154 99.0578 86.679 99.4019 86.679 99.7847V100.058C86.679 100.382 86.7222 100.682 86.8088 100.96C86.9 101.234 87.0321 101.473 87.2053 101.678C87.3785 101.883 87.5881 102.045 87.8342 102.164C88.0803 102.278 88.3606 102.334 88.675 102.334C89.0715 102.334 89.4247 102.255 89.7346 102.095C90.0445 101.936 90.3134 101.71 90.5413 101.418L91.4094 102.259C91.2499 102.492 91.0426 102.715 90.7874 102.929C90.5321 103.139 90.22 103.31 89.8508 103.442C89.4862 103.574 89.0624 103.64 88.5793 103.64Z" fill="#54798F"/>
<defs>
<filter id="filter0_d_4_1109" x="0.351807" y="0" width="120.784" height="149" filterUnits="userSpaceOnUse" color-interpolation-filters="sRGB">
<feFlood flood-opacity="0" result="BackgroundImageFix"/>
<feColorMatrix in="SourceAlpha" type="matrix" values="0 0 0 0 0 0 0 0 0 0 0 0 0 0 0 0 0 0 127 0" result="hardAlpha"/>
<feOffset/>
<feGaussianBlur stdDeviation="7.5"/>
<feComposite in2="hardAlpha" operator="out"/>
<feColorMatrix type="matrix" values="0 0 0 0 0 0 0 0 0 0 0 0 0 0 0 0 0 0 0.08 0"/>
<feBlend mode="normal" in2="BackgroundImageFix" result="effect1_dropShadow_4_1109"/>
<feBlend mode="normal" in="SourceGraphic" in2="effect1_dropShadow_4_1109" result="shape"/>
</filter>
</defs>
</svg>
