<svg width="122" height="134" viewBox="0 0 122 134" fill="none" xmlns="http://www.w3.org/2000/svg">
<g filter="url(#filter0_d_4_1105)">
<rect x="15.5679" y="15" width="90.7839" height="119" rx="10" fill="#E47036" fill-opacity="0.27" shape-rendering="crispEdges"/>
</g>
<path d="M61 53C61.8167 53.9833 62.55 54.8958 63.2 55.7375C63.85 56.5792 64.4333 57.3833 64.95 58.15L71 53.625V63.125C71 64.5083 70.7375 65.8083 70.2125 67.025C69.6875 68.2417 68.975 69.3 68.075 70.2C67.175 71.1 66.1167 71.8125 64.9 72.3375C63.6833 72.8625 62.3833 73.125 61 73.125C59.6167 73.125 58.3167 72.8625 57.1 72.3375C55.8833 71.8125 54.825 71.1 53.925 70.2C53.025 69.3 52.3125 68.2417 51.7875 67.025C51.2625 65.8083 51 64.5083 51 63.125V53.625L57.05 58.15C57.5667 57.4 58.15 56.6 58.8 55.75C59.45 54.9 60.1833 53.9833 61 53ZM53 57.625V63.125C53 63.8583 53.0958 64.5625 53.2875 65.2375C53.4792 65.9125 53.7417 66.5417 54.075 67.125C54.0417 66.9583 54.0208 66.7958 54.0125 66.6375C54.0042 66.4792 54 66.3083 54 66.125C54 65.175 54.1542 64.1958 54.4625 63.1875C54.7708 62.1792 55.275 61.075 55.975 59.875L53 57.625ZM61 56.125C59.1667 58.3583 57.875 60.3083 57.125 61.975C56.375 63.6417 56 65.025 56 66.125C56 67.5083 56.4875 68.6875 57.4625 69.6625C58.4375 70.6375 59.6167 71.125 61 71.125C62.3833 71.125 63.5625 70.6375 64.5375 69.6625C65.5125 68.6875 66 67.5083 66 66.125C66 65.025 65.625 63.6333 64.875 61.95C64.125 60.2667 62.8333 58.325 61 56.125ZM69 57.625L66.025 59.85C66.725 61.05 67.2292 62.1542 67.5375 63.1625C67.8458 64.1708 68 65.1583 68 66.125C68 66.3083 67.9958 66.4792 67.9875 66.6375C67.9792 66.7958 67.9583 66.9583 67.925 67.125C68.2583 66.5417 68.5208 65.9125 68.7125 65.2375C68.9042 64.5625 69 63.8583 69 63.125V57.625Z" fill="#E47036"/>
<path d="M43.896 100.263H45.605C45.5503 100.915 45.368 101.496 45.0581 102.006C44.7482 102.512 44.313 102.911 43.7524 103.203C43.1919 103.494 42.5106 103.64 41.7085 103.64C41.0933 103.64 40.5396 103.531 40.0474 103.312C39.5552 103.089 39.1336 102.774 38.7827 102.369C38.4318 101.958 38.1629 101.464 37.9761 100.885C37.7938 100.306 37.7026 99.6593 37.7026 98.9438V98.1167C37.7026 97.4012 37.7961 96.7541 37.9829 96.1753C38.1743 95.5965 38.4478 95.1021 38.8032 94.6919C39.1587 94.2772 39.5848 93.9604 40.0815 93.7417C40.5828 93.5229 41.1457 93.4136 41.77 93.4136C42.563 93.4136 43.2329 93.5594 43.7798 93.8511C44.3267 94.1427 44.7505 94.5461 45.0513 95.061C45.3566 95.576 45.5435 96.1662 45.6118 96.8315H43.9028C43.8573 96.4032 43.757 96.0363 43.6021 95.731C43.4517 95.4256 43.2284 95.1932 42.9321 95.0337C42.6359 94.8696 42.2485 94.7876 41.77 94.7876C41.3781 94.7876 41.0363 94.8605 40.7446 95.0063C40.453 95.1522 40.2091 95.3664 40.0132 95.6489C39.8172 95.9315 39.6691 96.2801 39.5688 96.6948C39.4731 97.105 39.4253 97.5744 39.4253 98.103V98.9438C39.4253 99.4451 39.4686 99.9009 39.5552 100.311C39.6463 100.717 39.783 101.065 39.9653 101.357C40.1522 101.649 40.3892 101.874 40.6763 102.034C40.9634 102.193 41.3075 102.273 41.7085 102.273C42.1961 102.273 42.5903 102.195 42.8911 102.041C43.1965 101.886 43.4266 101.66 43.5815 101.364C43.741 101.063 43.8459 100.696 43.896 100.263ZM51.4497 101.76V96.1069H53.104V103.503H51.5454L51.4497 101.76ZM51.6821 100.222L52.2358 100.208C52.2358 100.705 52.1812 101.163 52.0718 101.583C51.9624 101.997 51.7938 102.36 51.5659 102.669C51.3381 102.975 51.0464 103.214 50.6909 103.387C50.3354 103.556 49.9093 103.64 49.4126 103.64C49.0526 103.64 48.7222 103.588 48.4214 103.483C48.1206 103.378 47.8608 103.216 47.6421 102.998C47.4279 102.779 47.2616 102.494 47.1431 102.143C47.0246 101.792 46.9653 101.373 46.9653 100.885V96.1069H48.6128V100.899C48.6128 101.168 48.6447 101.393 48.7085 101.576C48.7723 101.753 48.8589 101.897 48.9683 102.006C49.0776 102.116 49.2052 102.193 49.3511 102.239C49.4969 102.284 49.6519 102.307 49.8159 102.307C50.2853 102.307 50.6545 102.216 50.9233 102.034C51.1968 101.847 51.3905 101.596 51.5044 101.282C51.6229 100.967 51.6821 100.614 51.6821 100.222ZM56.5562 93.0034V103.503H54.9019V93.0034H56.5562ZM61.7515 96.1069V97.3101H57.5815V96.1069H61.7515ZM58.7847 94.2954H60.4321V101.459C60.4321 101.687 60.464 101.863 60.5278 101.986C60.5962 102.104 60.6896 102.184 60.8081 102.225C60.9266 102.266 61.0656 102.287 61.2251 102.287C61.339 102.287 61.4484 102.28 61.5532 102.266C61.658 102.252 61.7424 102.239 61.8062 102.225L61.813 103.483C61.6763 103.524 61.5168 103.56 61.3345 103.592C61.1567 103.624 60.9517 103.64 60.7192 103.64C60.341 103.64 60.006 103.574 59.7144 103.442C59.4227 103.305 59.1948 103.084 59.0308 102.779C58.8667 102.473 58.7847 102.068 58.7847 101.562V94.2954ZM67.4731 101.76V96.1069H69.1274V103.503H67.5688L67.4731 101.76ZM67.7056 100.222L68.2593 100.208C68.2593 100.705 68.2046 101.163 68.0952 101.583C67.9858 101.997 67.8172 102.36 67.5894 102.669C67.3615 102.975 67.0698 103.214 66.7144 103.387C66.3589 103.556 65.9328 103.64 65.436 103.64C65.076 103.64 64.7456 103.588 64.4448 103.483C64.144 103.378 63.8843 103.216 63.6655 102.998C63.4513 102.779 63.285 102.494 63.1665 102.143C63.048 101.792 62.9888 101.373 62.9888 100.885V96.1069H64.6362V100.899C64.6362 101.168 64.6681 101.393 64.7319 101.576C64.7957 101.753 64.8823 101.897 64.9917 102.006C65.1011 102.116 65.2287 102.193 65.3745 102.239C65.5203 102.284 65.6753 102.307 65.8394 102.307C66.3088 102.307 66.6779 102.216 66.9468 102.034C67.2202 101.847 67.4139 101.596 67.5278 101.282C67.6463 100.967 67.7056 100.614 67.7056 100.222ZM72.4702 97.5151V103.503H70.8228V96.1069H72.395L72.4702 97.5151ZM74.7329 96.0591L74.7192 97.5903C74.619 97.5721 74.5096 97.5584 74.3911 97.5493C74.2772 97.5402 74.1632 97.5356 74.0493 97.5356C73.7668 97.5356 73.5184 97.5767 73.3042 97.6587C73.09 97.7362 72.91 97.8501 72.7642 98.0005C72.6229 98.1463 72.5135 98.3241 72.436 98.5337C72.3586 98.7433 72.313 98.978 72.2993 99.2378L71.9233 99.2651C71.9233 98.8003 71.9689 98.3696 72.0601 97.9731C72.1512 97.5767 72.2879 97.228 72.4702 96.9272C72.6571 96.6265 72.8895 96.3918 73.1675 96.2231C73.45 96.0545 73.7759 95.9702 74.145 95.9702C74.2453 95.9702 74.3524 95.9793 74.4663 95.9976C74.5848 96.0158 74.6737 96.0363 74.7329 96.0591ZM78.8892 103.64C78.3423 103.64 77.8478 103.551 77.4058 103.374C76.9683 103.191 76.5946 102.938 76.2847 102.615C75.9793 102.291 75.7446 101.911 75.5806 101.473C75.4165 101.036 75.3345 100.564 75.3345 100.058V99.7847C75.3345 99.2059 75.4188 98.6818 75.5874 98.2124C75.756 97.743 75.9907 97.342 76.2915 97.0093C76.5923 96.672 76.9478 96.4146 77.3579 96.2368C77.7681 96.0591 78.2124 95.9702 78.6909 95.9702C79.2196 95.9702 79.6821 96.0591 80.0786 96.2368C80.4751 96.4146 80.8032 96.6652 81.063 96.9888C81.3273 97.3078 81.5233 97.6883 81.6509 98.1304C81.783 98.5724 81.8491 99.0601 81.8491 99.5933V100.297H76.1343V99.1147H80.2222V98.9849C80.2131 98.6886 80.1538 98.4106 80.0444 98.1509C79.9396 97.8911 79.7778 97.6815 79.5591 97.522C79.3403 97.3625 79.0487 97.2827 78.6841 97.2827C78.4106 97.2827 78.1668 97.342 77.9526 97.4604C77.743 97.5744 77.5675 97.7407 77.4263 97.9595C77.285 98.1782 77.1756 98.4425 77.0981 98.7524C77.0252 99.0578 76.9888 99.4019 76.9888 99.7847V100.058C76.9888 100.382 77.0321 100.682 77.1187 100.96C77.2098 101.234 77.342 101.473 77.5151 101.678C77.6883 101.883 77.8979 102.045 78.144 102.164C78.3901 102.278 78.6704 102.334 78.9849 102.334C79.3813 102.334 79.7345 102.255 80.0444 102.095C80.3543 101.936 80.6232 101.71 80.8511 101.418L81.7192 102.259C81.5597 102.492 81.3524 102.715 81.0972 102.929C80.842 103.139 80.5298 103.31 80.1606 103.442C79.7961 103.574 79.3722 103.64 78.8892 103.64Z" fill="#E47036"/>
<defs>
<filter id="filter0_d_4_1105" x="0.567871" y="0" width="120.784" height="149" filterUnits="userSpaceOnUse" color-interpolation-filters="sRGB">
<feFlood flood-opacity="0" result="BackgroundImageFix"/>
<feColorMatrix in="SourceAlpha" type="matrix" values="0 0 0 0 0 0 0 0 0 0 0 0 0 0 0 0 0 0 127 0" result="hardAlpha"/>
<feOffset/>
<feGaussianBlur stdDeviation="7.5"/>
<feComposite in2="hardAlpha" operator="out"/>
<feColorMatrix type="matrix" values="0 0 0 0 0 0 0 0 0 0 0 0 0 0 0 0 0 0 0.08 0"/>
<feBlend mode="normal" in2="BackgroundImageFix" result="effect1_dropShadow_4_1105"/>
<feBlend mode="normal" in="SourceGraphic" in2="effect1_dropShadow_4_1105" result="shape"/>
</filter>
</defs>
</svg>
