<svg width="106" height="134" viewBox="0 0 106 134" fill="none" xmlns="http://www.w3.org/2000/svg">
<g filter="url(#filter0_d_4_1097)">
<rect y="15" width="90.7839" height="119" rx="10" fill="#1F84B2"/>
</g>
<path d="M31 75V72.9535H32.05C32.61 72.9535 33.1525 72.8682 33.6775 72.6977C34.2025 72.5271 34.71 72.2713 35.2 71.9302C35.69 72.2713 36.1975 72.5229 36.7225 72.6849C37.2475 72.8469 37.79 72.9279 38.35 72.9279C38.91 72.9279 39.4569 72.8469 39.9906 72.6849C40.5244 72.5229 41.0275 72.2713 41.5 71.9302C41.99 72.2713 42.4975 72.5229 43.0225 72.6849C43.5475 72.8469 44.09 72.9279 44.65 72.9279C45.21 72.9279 45.7569 72.8469 46.2906 72.6849C46.8244 72.5229 47.3275 72.2713 47.8 71.9302C48.2725 72.2713 48.7756 72.5271 49.3094 72.6977C49.8431 72.8682 50.39 72.9535 50.95 72.9535H52V75H50.95C50.4075 75 49.8737 74.936 49.3487 74.8081C48.8237 74.6802 48.3075 74.4884 47.8 74.2326C47.2925 74.4884 46.7762 74.6802 46.2513 74.8081C45.7262 74.936 45.1925 75 44.65 75C44.1075 75 43.5737 74.936 43.0487 74.8081C42.5238 74.6802 42.0075 74.4884 41.5 74.2326C40.9925 74.4884 40.4762 74.6802 39.9513 74.8081C39.4263 74.936 38.8925 75 38.35 75C37.8075 75 37.2737 74.936 36.7487 74.8081C36.2237 74.6802 35.7075 74.4884 35.2 74.2326C34.6925 74.4884 34.1762 74.6802 33.6512 74.8081C33.1263 74.936 32.5925 75 32.05 75H31ZM37.825 55.5581L43.6525 56.607C43.8975 56.6411 44.1337 56.7349 44.3612 56.8884C44.5887 57.0419 44.7812 57.255 44.9388 57.5279L45.8575 59.114C46.3125 59.8814 46.9425 60.5039 47.7475 60.9814C48.5525 61.4589 49.445 61.6977 50.425 61.6977V63.7442C49.06 63.7442 47.8175 63.4116 46.6975 62.7465C45.5775 62.0814 44.6937 61.2116 44.0462 60.1372L41.6838 61.6977L45.7 64.7674V68.707C45.98 68.8946 46.2513 69.0907 46.5138 69.2953C46.7762 69.5 47.03 69.6961 47.275 69.8837C46.9075 70.1907 46.505 70.438 46.0675 70.6256C45.63 70.8132 45.1575 70.907 44.65 70.907C44.02 70.907 43.4337 70.762 42.8912 70.4721C42.3487 70.1822 41.885 69.8155 41.5 69.3721C41.115 69.8155 40.6512 70.1822 40.1087 70.4721C39.5662 70.762 38.98 70.907 38.35 70.907C38.175 70.907 38.0044 70.8942 37.8381 70.8686C37.6719 70.843 37.51 70.8047 37.3525 70.7535C35.8475 69.7473 34.5875 68.7326 33.5725 67.7093C32.5575 66.686 32.05 65.7992 32.05 65.0488C32.05 64.5202 32.26 64.1705 32.68 64C33.1 63.8295 33.5375 63.7442 33.9925 63.7442C34.5 63.7442 35.0862 63.8167 35.7512 63.9616C36.4162 64.1066 37.125 64.3155 37.8775 64.5884L37.3262 61.4163C37.2562 61.0752 37.2956 60.7384 37.4444 60.4058C37.5931 60.0733 37.825 59.8047 38.14 59.6L40.3975 58.1163C40.345 58.1163 40.2181 58.095 40.0169 58.0523C39.8156 58.0097 39.5925 57.9671 39.3475 57.9244C39.1025 57.8818 38.8794 57.8391 38.6781 57.7965C38.4769 57.7539 38.35 57.7326 38.2975 57.7326L35.3312 59.7023L34.15 58.014L37.825 55.5581ZM39.715 62.8233L40.1875 65.5349C40.66 65.7566 41.2463 66.0508 41.9462 66.4174C42.6462 66.7841 43.1975 67.0868 43.6 67.3256V65.7907L39.715 62.8233ZM46.75 57.093C46.1725 57.093 45.6781 56.8926 45.2669 56.4919C44.8556 56.0911 44.65 55.6093 44.65 55.0465C44.65 54.4837 44.8556 54.0019 45.2669 53.6012C45.6781 53.2004 46.1725 53 46.75 53C47.3275 53 47.8219 53.2004 48.2331 53.6012C48.6444 54.0019 48.85 54.4837 48.85 55.0465C48.85 55.6093 48.6444 56.0911 48.2331 56.4919C47.8219 56.8926 47.3275 57.093 46.75 57.093Z" fill="white"/>
<path d="M27.7539 100.94C27.7539 100.735 27.722 100.553 27.6582 100.393C27.599 100.234 27.4919 100.088 27.3369 99.9556C27.182 99.8234 26.9632 99.6958 26.6807 99.5728C26.4027 99.4451 26.0472 99.3153 25.6143 99.1831C25.1403 99.0373 24.7028 98.8755 24.3018 98.6978C23.9053 98.5155 23.5589 98.3058 23.2627 98.0688C22.9665 97.8273 22.7363 97.5516 22.5723 97.2417C22.4082 96.9272 22.3262 96.5649 22.3262 96.1548C22.3262 95.7492 22.4105 95.38 22.5791 95.0474C22.7523 94.7147 22.9961 94.4276 23.3105 94.186C23.6296 93.9399 24.0055 93.7508 24.4385 93.6187C24.8714 93.4819 25.3499 93.4136 25.874 93.4136C26.6123 93.4136 27.248 93.5503 27.7812 93.8237C28.319 94.0972 28.7314 94.464 29.0186 94.9243C29.3102 95.3846 29.4561 95.8927 29.4561 96.4487H27.7539C27.7539 96.1206 27.6833 95.8312 27.542 95.5806C27.4053 95.3254 27.1956 95.1248 26.9131 94.979C26.6351 94.8332 26.2819 94.7603 25.8535 94.7603C25.4479 94.7603 25.1107 94.8218 24.8418 94.9448C24.5729 95.0679 24.3724 95.2342 24.2402 95.4438C24.1081 95.6535 24.042 95.8905 24.042 96.1548C24.042 96.3416 24.0853 96.5125 24.1719 96.6675C24.2585 96.8179 24.3906 96.9591 24.5684 97.0913C24.7461 97.2189 24.9694 97.3397 25.2383 97.4536C25.5072 97.5675 25.8239 97.6769 26.1885 97.7817C26.7399 97.9458 27.2207 98.1281 27.6309 98.3286C28.041 98.5246 28.3828 98.7479 28.6562 98.9985C28.9297 99.2492 29.1348 99.534 29.2715 99.853C29.4082 100.167 29.4766 100.525 29.4766 100.926C29.4766 101.346 29.3923 101.724 29.2236 102.061C29.055 102.394 28.8135 102.679 28.499 102.916C28.1891 103.148 27.8154 103.328 27.3779 103.456C26.945 103.579 26.4619 103.64 25.9287 103.64C25.4502 103.64 24.9785 103.576 24.5137 103.449C24.0534 103.321 23.6341 103.127 23.2559 102.868C22.8776 102.603 22.5768 102.275 22.3535 101.883C22.1302 101.487 22.0186 101.024 22.0186 100.496H23.7344C23.7344 100.819 23.7891 101.095 23.8984 101.323C24.0124 101.551 24.1696 101.737 24.3701 101.883C24.5706 102.025 24.8031 102.129 25.0674 102.198C25.3363 102.266 25.6234 102.3 25.9287 102.3C26.3298 102.3 26.6647 102.243 26.9336 102.129C27.207 102.015 27.4121 101.856 27.5488 101.651C27.6855 101.446 27.7539 101.209 27.7539 100.94ZM35.2803 101.76V96.1069H36.9346V103.503H35.376L35.2803 101.76ZM35.5127 100.222L36.0664 100.208C36.0664 100.705 36.0117 101.163 35.9023 101.583C35.793 101.997 35.6243 102.36 35.3965 102.669C35.1686 102.975 34.877 103.214 34.5215 103.387C34.166 103.556 33.7399 103.64 33.2432 103.64C32.8831 103.64 32.5527 103.588 32.252 103.483C31.9512 103.378 31.6914 103.216 31.4727 102.998C31.2585 102.779 31.0921 102.494 30.9736 102.143C30.8551 101.792 30.7959 101.373 30.7959 100.885V96.1069H32.4434V100.899C32.4434 101.168 32.4753 101.393 32.5391 101.576C32.6029 101.753 32.6895 101.897 32.7988 102.006C32.9082 102.116 33.0358 102.193 33.1816 102.239C33.3275 102.284 33.4824 102.307 33.6465 102.307C34.1159 102.307 34.485 102.216 34.7539 102.034C35.0273 101.847 35.221 101.596 35.335 101.282C35.4535 100.967 35.5127 100.614 35.5127 100.222ZM40.2773 97.5151V103.503H38.6299V96.1069H40.2021L40.2773 97.5151ZM42.54 96.0591L42.5264 97.5903C42.4261 97.5721 42.3167 97.5584 42.1982 97.5493C42.0843 97.5402 41.9704 97.5356 41.8564 97.5356C41.5739 97.5356 41.3255 97.5767 41.1113 97.6587C40.8971 97.7362 40.7171 97.8501 40.5713 98.0005C40.43 98.1463 40.3206 98.3241 40.2432 98.5337C40.1657 98.7433 40.1201 98.978 40.1064 99.2378L39.7305 99.2651C39.7305 98.8003 39.776 98.3696 39.8672 97.9731C39.9583 97.5767 40.0951 97.228 40.2773 96.9272C40.4642 96.6265 40.6966 96.3918 40.9746 96.2231C41.2572 96.0545 41.583 95.9702 41.9521 95.9702C42.0524 95.9702 42.1595 95.9793 42.2734 95.9976C42.3919 96.0158 42.4808 96.0363 42.54 96.0591ZM45.6914 103.503H44.0371V95.6284C44.0371 95.0314 44.1556 94.5278 44.3926 94.1177C44.6341 93.7075 44.9782 93.3953 45.4248 93.1812C45.876 92.967 46.4115 92.8599 47.0312 92.8599C47.3958 92.8599 47.7467 92.8986 48.084 92.9761C48.4258 93.0535 48.779 93.1515 49.1436 93.27L48.8906 94.6099C48.6582 94.5324 48.4007 94.4595 48.1182 94.3911C47.8356 94.3182 47.5098 94.2817 47.1406 94.2817C46.6439 94.2817 46.277 94.3957 46.04 94.6235C45.8076 94.8468 45.6914 95.1818 45.6914 95.6284V103.503ZM47.1748 96.1069V97.3101H42.9023V96.1069H47.1748ZM49.9229 96.1069V103.503H48.2754V96.1069H49.9229ZM53.3955 97.686V103.503H51.748V96.1069H53.2998L53.3955 97.686ZM53.1016 99.5317L52.5684 99.5249C52.5729 99.0008 52.6458 98.52 52.7871 98.0825C52.9329 97.645 53.1335 97.269 53.3887 96.9546C53.6484 96.6401 53.9583 96.3986 54.3184 96.23C54.6784 96.0568 55.0794 95.9702 55.5215 95.9702C55.877 95.9702 56.1982 96.0203 56.4854 96.1206C56.777 96.2163 57.0254 96.3735 57.2305 96.5923C57.4401 96.811 57.5996 97.0959 57.709 97.4468C57.8184 97.7931 57.873 98.2192 57.873 98.7251V103.503H56.2188V98.7183C56.2188 98.3628 56.1663 98.0825 56.0615 97.8774C55.9613 97.6678 55.8132 97.5197 55.6172 97.4331C55.4258 97.342 55.1865 97.2964 54.8994 97.2964C54.6169 97.2964 54.3639 97.3556 54.1406 97.4741C53.9173 97.5926 53.7282 97.7544 53.5732 97.9595C53.4229 98.1646 53.3066 98.4015 53.2246 98.6704C53.1426 98.9393 53.1016 99.2264 53.1016 99.5317ZM64.292 96.1069H65.7891V103.298C65.7891 103.964 65.6478 104.529 65.3652 104.994C65.0827 105.458 64.6885 105.812 64.1826 106.053C63.6768 106.299 63.0911 106.422 62.4258 106.422C62.1432 106.422 61.8288 106.381 61.4824 106.299C61.1406 106.217 60.8079 106.085 60.4844 105.903C60.1654 105.725 59.8988 105.49 59.6846 105.199L60.457 104.228C60.7214 104.542 61.013 104.773 61.332 104.918C61.651 105.064 61.986 105.137 62.3369 105.137C62.7152 105.137 63.0365 105.067 63.3008 104.925C63.5697 104.789 63.777 104.586 63.9229 104.317C64.0687 104.048 64.1416 103.72 64.1416 103.333V97.7817L64.292 96.1069ZM59.2676 99.8872V99.7437C59.2676 99.1831 59.3359 98.6727 59.4727 98.2124C59.6094 97.7476 59.8053 97.3488 60.0605 97.0161C60.3158 96.6789 60.6257 96.4214 60.9902 96.2437C61.3548 96.0614 61.7673 95.9702 62.2275 95.9702C62.7061 95.9702 63.1139 96.0568 63.4512 96.23C63.793 96.4032 64.0778 96.6515 64.3057 96.9751C64.5335 97.2941 64.7113 97.6769 64.8389 98.1235C64.971 98.5656 65.069 99.0578 65.1328 99.6001V100.058C65.0736 100.587 64.9733 101.07 64.832 101.507C64.6908 101.945 64.5039 102.323 64.2715 102.642C64.0391 102.961 63.752 103.207 63.4102 103.38C63.0729 103.554 62.6742 103.64 62.2139 103.64C61.7627 103.64 61.3548 103.547 60.9902 103.36C60.6302 103.173 60.3203 102.911 60.0605 102.574C59.8053 102.236 59.6094 101.84 59.4727 101.384C59.3359 100.924 59.2676 100.425 59.2676 99.8872ZM60.915 99.7437V99.8872C60.915 100.224 60.9469 100.539 61.0107 100.831C61.0791 101.122 61.1816 101.38 61.3184 101.603C61.4596 101.822 61.6374 101.995 61.8516 102.123C62.0703 102.246 62.3278 102.307 62.624 102.307C63.0114 102.307 63.3281 102.225 63.5742 102.061C63.8249 101.897 64.0163 101.676 64.1484 101.398C64.2852 101.115 64.3809 100.801 64.4355 100.455V99.2173C64.4082 98.9484 64.3512 98.6978 64.2646 98.4653C64.1826 98.2329 64.071 98.0301 63.9297 97.8569C63.7884 97.6792 63.6107 97.5425 63.3965 97.4468C63.1823 97.3465 62.9294 97.2964 62.6377 97.2964C62.3415 97.2964 62.084 97.3602 61.8652 97.4878C61.6465 97.6154 61.4665 97.7909 61.3252 98.0142C61.1885 98.2375 61.0859 98.4972 61.0176 98.7935C60.9492 99.0897 60.915 99.4064 60.915 99.7437Z" fill="white"/>
<defs>
<filter id="filter0_d_4_1097" x="-15" y="0" width="120.784" height="149" filterUnits="userSpaceOnUse" color-interpolation-filters="sRGB">
<feFlood flood-opacity="0" result="BackgroundImageFix"/>
<feColorMatrix in="SourceAlpha" type="matrix" values="0 0 0 0 0 0 0 0 0 0 0 0 0 0 0 0 0 0 127 0" result="hardAlpha"/>
<feOffset/>
<feGaussianBlur stdDeviation="7.5"/>
<feComposite in2="hardAlpha" operator="out"/>
<feColorMatrix type="matrix" values="0 0 0 0 0 0 0 0 0 0 0 0 0 0 0 0 0 0 0.08 0"/>
<feBlend mode="normal" in2="BackgroundImageFix" result="effect1_dropShadow_4_1097"/>
<feBlend mode="normal" in="SourceGraphic" in2="effect1_dropShadow_4_1097" result="shape"/>
</filter>
</defs>
</svg>
