<svg width="122" height="134" viewBox="0 0 122 134" fill="none" xmlns="http://www.w3.org/2000/svg">
<g filter="url(#filter0_d_4_1101)">
<rect x="15.7839" y="15" width="90.7839" height="119" rx="10" fill="#E2EADF"/>
</g>
<path d="M56 73V69H49L52.85 63H51L58 53L61 57.3L64 53L71 63H69.15L73 69H66V73H62V69H60V73H56ZM65.725 67H69.35L65.475 61H67.15L64 56.5L62.225 59.025L65 63H63.15L65.725 67ZM52.65 67H63.35L59.475 61H61.15L58 56.5L54.85 61H56.525L52.65 67ZM52.65 67H56.525H54.85H61.15H59.475H63.35H52.65ZM65.725 67H63.15H65H62.225H67.15H65.475H69.35H65.725Z" fill="#90AF84"/>
<path d="M40.4763 101.268L42.4587 93.5503H43.4978L43.3816 95.5396L41.2625 103.503H40.1824L40.4763 101.268ZM38.9929 93.5503L40.5994 101.207L40.7429 103.503H39.5945L37.2908 93.5503H38.9929ZM45.7468 101.186L47.3328 93.5503H49.0417L46.738 103.503H45.5896L45.7468 101.186ZM43.9011 93.5503L45.863 101.289L46.1501 103.503H45.0701L42.9851 95.5396L42.8757 93.5503H43.9011ZM51.9128 96.1069V103.503H50.2585V96.1069H51.9128ZM50.1492 94.1655C50.1492 93.9149 50.2312 93.7075 50.3953 93.5435C50.5639 93.3748 50.7963 93.2905 51.0925 93.2905C51.3842 93.2905 51.6143 93.3748 51.783 93.5435C51.9516 93.7075 52.0359 93.9149 52.0359 94.1655C52.0359 94.4116 51.9516 94.6167 51.783 94.7808C51.6143 94.9448 51.3842 95.0269 51.0925 95.0269C50.7963 95.0269 50.5639 94.9448 50.3953 94.7808C50.2312 94.6167 50.1492 94.4116 50.1492 94.1655ZM55.4812 93.0034V103.503H53.8269V93.0034H55.4812ZM61.7976 101.972V93.0034H63.4519V103.503H61.9548L61.7976 101.972ZM56.9851 99.8872V99.7437C56.9851 99.1831 57.0512 98.6727 57.1833 98.2124C57.3155 97.7476 57.5069 97.3488 57.7576 97.0161C58.0082 96.6789 58.3136 96.4214 58.6736 96.2437C59.0336 96.0614 59.4392 95.9702 59.8904 95.9702C60.337 95.9702 60.7289 96.0568 61.0662 96.23C61.4034 96.4032 61.6905 96.6515 61.9275 96.9751C62.1645 97.2941 62.3536 97.6769 62.4949 98.1235C62.6361 98.5656 62.7364 99.0578 62.7957 99.6001V100.058C62.7364 100.587 62.6361 101.07 62.4949 101.507C62.3536 101.945 62.1645 102.323 61.9275 102.642C61.6905 102.961 61.4011 103.207 61.0593 103.38C60.7221 103.554 60.3279 103.64 59.8767 103.64C59.4301 103.64 59.0268 103.547 58.6667 103.36C58.3113 103.173 58.0082 102.911 57.7576 102.574C57.5069 102.236 57.3155 101.84 57.1833 101.384C57.0512 100.924 56.9851 100.425 56.9851 99.8872ZM58.6326 99.7437V99.8872C58.6326 100.224 58.6622 100.539 58.7214 100.831C58.7852 101.122 58.8832 101.38 59.0154 101.603C59.1475 101.822 59.3184 101.995 59.5281 102.123C59.7423 102.246 59.9975 102.307 60.2937 102.307C60.6674 102.307 60.975 102.225 61.2166 102.061C61.4581 101.897 61.6472 101.676 61.7839 101.398C61.9252 101.115 62.0209 100.801 62.071 100.455V99.2173C62.0437 98.9484 61.9867 98.6978 61.9001 98.4653C61.8181 98.2329 61.7065 98.0301 61.5652 97.8569C61.4239 97.6792 61.2485 97.5425 61.0388 97.4468C60.8337 97.3465 60.5899 97.2964 60.3074 97.2964C60.0066 97.2964 59.7514 97.3602 59.5417 97.4878C59.3321 97.6154 59.1589 97.7909 59.0222 98.0142C58.8901 98.2375 58.7921 98.4972 58.7283 98.7935C58.6645 99.0897 58.6326 99.4064 58.6326 99.7437ZM66.9382 93.0034V103.503H65.2839V93.0034H66.9382ZM70.5066 96.1069V103.503H68.8523V96.1069H70.5066ZM68.7429 94.1655C68.7429 93.9149 68.825 93.7075 68.989 93.5435C69.1576 93.3748 69.3901 93.2905 69.6863 93.2905C69.9779 93.2905 70.2081 93.3748 70.3767 93.5435C70.5453 93.7075 70.6296 93.9149 70.6296 94.1655C70.6296 94.4116 70.5453 94.6167 70.3767 94.7808C70.2081 94.9448 69.9779 95.0269 69.6863 95.0269C69.3901 95.0269 69.1576 94.9448 68.989 94.7808C68.825 94.6167 68.7429 94.4116 68.7429 94.1655ZM74.5398 103.503H72.8923V95.396C72.8923 94.8446 72.9949 94.382 73.2 94.0083C73.4096 93.63 73.7081 93.3452 74.0955 93.1538C74.4828 92.9578 74.9408 92.8599 75.4695 92.8599C75.6335 92.8599 75.7953 92.8713 75.9548 92.894C76.1143 92.9123 76.2693 92.9419 76.4197 92.9829L76.3787 94.2544C76.2875 94.2316 76.1873 94.2157 76.0779 94.2065C75.9731 94.1974 75.8591 94.1929 75.7361 94.1929C75.4854 94.1929 75.269 94.2407 75.0867 94.3364C74.9089 94.4276 74.7722 94.562 74.6765 94.7397C74.5854 94.9175 74.5398 95.1362 74.5398 95.396V103.503ZM76.0642 96.1069V97.3101H71.7576V96.1069H76.0642ZM80.3572 103.64C79.8103 103.64 79.3158 103.551 78.8738 103.374C78.4363 103.191 78.0626 102.938 77.7527 102.615C77.4473 102.291 77.2126 101.911 77.0486 101.473C76.8845 101.036 76.8025 100.564 76.8025 100.058V99.7847C76.8025 99.2059 76.8868 98.6818 77.0554 98.2124C77.224 97.743 77.4587 97.342 77.7595 97.0093C78.0603 96.672 78.4158 96.4146 78.8259 96.2368C79.2361 96.0591 79.6804 95.9702 80.1589 95.9702C80.6876 95.9702 81.1501 96.0591 81.5466 96.2368C81.9431 96.4146 82.2712 96.6652 82.531 96.9888C82.7953 97.3078 82.9913 97.6883 83.1189 98.1304C83.2511 98.5724 83.3171 99.0601 83.3171 99.5933V100.297H77.6023V99.1147H81.6902V98.9849C81.6811 98.6886 81.6218 98.4106 81.5125 98.1509C81.4076 97.8911 81.2458 97.6815 81.0271 97.522C80.8083 97.3625 80.5167 97.2827 80.1521 97.2827C79.8787 97.2827 79.6348 97.342 79.4207 97.4604C79.211 97.5744 79.0356 97.7407 78.8943 97.9595C78.753 98.1782 78.6436 98.4425 78.5662 98.7524C78.4932 99.0578 78.4568 99.4019 78.4568 99.7847V100.058C78.4568 100.382 78.5001 100.682 78.5867 100.96C78.6778 101.234 78.81 101.473 78.9832 101.678C79.1563 101.883 79.366 102.045 79.6121 102.164C79.8582 102.278 80.1384 102.334 80.4529 102.334C80.8494 102.334 81.2026 102.255 81.5125 102.095C81.8223 101.936 82.0912 101.71 82.3191 101.418L83.1873 102.259C83.0278 102.492 82.8204 102.715 82.5652 102.929C82.31 103.139 81.9978 103.31 81.6287 103.442C81.2641 103.574 80.8403 103.64 80.3572 103.64Z" fill="#90AF84"/>
<defs>
<filter id="filter0_d_4_1101" x="0.783936" y="0" width="120.784" height="149" filterUnits="userSpaceOnUse" color-interpolation-filters="sRGB">
<feFlood flood-opacity="0" result="BackgroundImageFix"/>
<feColorMatrix in="SourceAlpha" type="matrix" values="0 0 0 0 0 0 0 0 0 0 0 0 0 0 0 0 0 0 127 0" result="hardAlpha"/>
<feOffset/>
<feGaussianBlur stdDeviation="7.5"/>
<feComposite in2="hardAlpha" operator="out"/>
<feColorMatrix type="matrix" values="0 0 0 0 0 0 0 0 0 0 0 0 0 0 0 0 0 0 0.08 0"/>
<feBlend mode="normal" in2="BackgroundImageFix" result="effect1_dropShadow_4_1101"/>
<feBlend mode="normal" in="SourceGraphic" in2="effect1_dropShadow_4_1101" result="shape"/>
</filter>
</defs>
</svg>
