<svg width="22" height="25" viewBox="0 0 22 25" fill="none" xmlns="http://www.w3.org/2000/svg">
<path d="M4.4 14.7727L6.5175 9.09091H3.3L1.8425 11.3636H0L1.1 7.38636L0 3.40909H1.8425L3.3 5.68182H6.5175L4.4 0H6.6L10.395 5.68182H13.75C14.2083 5.68182 14.5979 5.84754 14.9188 6.17898C15.2396 6.51042 15.4 6.91288 15.4 7.38636C15.4 7.85985 15.2396 8.26231 14.9188 8.59375C14.5979 8.92519 14.2083 9.09091 13.75 9.09091H10.395L6.6 14.7727H4.4ZM15.4 25L11.605 19.3182H8.25C7.79167 19.3182 7.40208 19.1525 7.08125 18.821C6.76042 18.4896 6.6 18.0871 6.6 17.6136C6.6 17.1402 6.76042 16.7377 7.08125 16.4062C7.40208 16.0748 7.79167 15.9091 8.25 15.9091H11.605L15.4 10.2273H17.6L15.4825 15.9091H18.7L20.1575 13.6364H22L20.9 17.6136L22 21.5909H20.1575L18.7 19.3182H15.4825L17.6 25H15.4Z" fill="#4D4D4D"/>
</svg>
