<svg width="1924" height="460" viewBox="0 0 1924 460" fill="none" xmlns="http://www.w3.org/2000/svg">
<path d="M1916.84 444.564C1914.3 443.283 1911.62 442.322 1908.84 441.704C1902.08 440.132 1895.52 437.791 1888.64 436.69C1882.73 435.744 1876.21 437.26 1870.37 436.152C1864.24 434.993 1857.35 434.125 1851.33 432.734C1844.23 431.099 1838.21 428.305 1831 426.865C1825.39 425.746 1818.87 424.757 1813.62 421.529C1809.94 419.265 1804.5 415.33 1802.62 411.338C1800.67 407.184 1803.22 402.357 1796.25 405.119C1795.1 405.608 1793.87 405.85 1792.62 405.828C1791.38 405.805 1790.15 405.519 1789.02 404.989C1788.1 404.489 1787.06 404.225 1786.01 404.221C1784.12 404.332 1784.11 404.34 1784.73 402.554C1784.88 402.143 1785.18 401.715 1784.81 401.331C1784.46 400.966 1783.97 401.161 1783.55 401.252C1782.98 401.374 1782.48 401.793 1781.75 401.651C1781.87 401.152 1781.97 400.689 1782.11 400.235C1782.33 399.488 1782.64 398.651 1781.89 398.117C1781.54 397.94 1781.16 397.857 1780.77 397.876C1780.38 397.896 1780.01 398.018 1779.68 398.229C1778.46 398.874 1777.4 399.778 1776.57 400.878C1776.09 401.411 1775.62 401.976 1774.76 401.813C1773.32 401.537 1770.86 399.131 1770.66 397.71C1770.63 397.215 1770.46 396.739 1770.15 396.348C1769.85 395.957 1769.43 395.671 1768.95 395.529C1768.38 395.412 1767.85 395.139 1767.42 394.739C1766.99 394.34 1766.68 393.83 1766.53 393.267C1766.4 392.533 1766.05 391.856 1765.52 391.332C1764.98 390.809 1764.3 390.464 1763.56 390.348C1763.25 390.26 1762.95 390.097 1762.63 390.018C1761.53 389.744 1761.67 388.51 1761.01 387.854C1760.79 387.639 1761.84 387.172 1762.29 386.804C1762.82 386.377 1763.55 386.133 1763.76 385.196C1763.24 385.336 1762.68 385.291 1762.18 385.068C1761.69 384.846 1761.28 384.46 1761.04 383.976C1760.39 382.954 1758.68 383.028 1757.38 382.75C1756.66 382.595 1755.71 382.774 1755.29 382.037C1754.69 380.982 1754 381.107 1753.08 381.492C1752.29 381.822 1751.35 382.281 1751.12 380.798C1751.08 380.588 1750.77 380.386 1750.54 380.246C1748.59 379.033 1747.01 379.809 1746.8 382.071C1746.65 383.784 1746.02 384.366 1744.8 383.58C1742.4 382.017 1739.61 381.162 1736.74 381.115C1736.26 381.103 1735.54 381.064 1735.38 380.416C1734.75 377.946 1733.33 375.826 1732.33 373.53C1730.96 370.376 1729.06 367.492 1727.79 364.26C1726.8 361.615 1725.11 359.29 1722.89 357.539C1722.73 357.434 1722.6 357.288 1722.52 357.117C1722.44 356.945 1722.4 356.755 1722.42 356.566C1722.55 353.863 1721.38 351.572 1720.11 349.302C1719.49 348.328 1719.02 347.271 1718.69 346.163C1718.05 343.377 1717.33 340.662 1715.15 338.549C1714.06 337.5 1714.26 336.289 1715.48 335.288C1716.88 334.095 1717.78 332.429 1718.02 330.612C1718.46 327.567 1718.58 324.484 1718.36 321.415C1718.35 319.677 1717.89 317.971 1717.04 316.454C1716.19 314.937 1714.97 313.659 1713.49 312.738C1713.26 312.589 1712.86 312.402 1712.87 312.239C1712.9 310.443 1711.29 309.427 1710.85 307.86C1710.38 306.126 1709.37 305.899 1707.9 306.826C1707.07 307.349 1706.52 307.288 1706.09 306.128C1705.91 305.527 1705.56 304.988 1705.1 304.566C1704.63 304.145 1704.06 303.857 1703.44 303.732C1701.97 303.644 1700.5 303.423 1699.07 303.075C1698.8 302.985 1698.52 302.962 1698.24 303.01C1697.97 303.057 1697.71 303.172 1697.49 303.345C1697.27 303.518 1697.09 303.744 1696.98 304C1696.87 304.257 1696.83 304.538 1696.85 304.816C1697.01 306.519 1696.14 306.04 1695.31 305.679C1694.3 305.09 1693.12 304.86 1691.97 305.027C1690.61 305.253 1689.21 305.167 1687.89 304.774C1687.2 304.617 1686.49 304.534 1685.77 304.527C1684.8 304.544 1683.93 304.768 1683.14 303.765C1682.7 303.203 1681.67 303.31 1680.81 303.317C1679.25 303.331 1678.09 304.761 1676.43 304.305C1673.78 303.746 1671.18 302.944 1668.68 301.91C1668.26 301.711 1667.4 301.286 1667.64 301.065C1668.57 300.21 1667.1 298.615 1668.68 298.071C1669.01 297.958 1669.53 297.91 1669.43 297.372C1669.35 296.937 1668.9 296.841 1668.55 296.734C1667.59 296.489 1666.59 296.393 1665.6 296.449C1664.94 296.46 1664.21 296.313 1663.9 297.106C1663.63 297.805 1664.22 298.204 1664.6 298.644C1664.85 298.932 1665.23 299.143 1665.39 299.467C1665.7 300.066 1665.63 300.835 1664.94 300.932C1663.39 301.28 1661.79 301.351 1660.21 301.142C1658.16 300.761 1656.07 300.603 1653.99 300.671C1652.17 300.646 1650.35 300.685 1648.53 300.609C1646.48 300.585 1644.49 299.852 1642.92 298.536C1642.01 297.764 1641.22 296.69 1640 296.44C1636.58 295.742 1632.53 296.527 1630.83 300.451C1630.14 301.942 1629.69 303.535 1629.51 305.167C1629.41 306.228 1629.57 307.433 1628.67 308.261C1626.02 310.699 1624.71 313.884 1623.61 317.185C1623.21 318.616 1622.54 319.956 1621.62 321.13C1620.77 322.076 1620.25 323.275 1620.15 324.543C1619.96 325.906 1619.45 327.205 1618.66 328.335C1617.28 330.464 1616.5 332.927 1616.4 335.462C1616.37 337.439 1616.4 339.418 1616.33 341.394C1616.09 343.649 1616.6 345.92 1617.78 347.858C1618.08 348.445 1618.26 349.083 1618.32 349.737C1618.52 350.75 1618.23 351.234 1617.04 351.489C1616.32 351.719 1615.56 351.774 1614.81 351.649C1614.07 351.524 1613.36 351.223 1612.76 350.771C1612.5 350.547 1612.19 350.407 1611.85 350.371C1611.52 350.335 1611.18 350.405 1610.88 350.572C1609.12 352.148 1606.83 352.584 1604.86 353.658C1603.53 354.385 1602.61 354.579 1601.45 353.694C1601.07 353.344 1600.57 353.143 1600.05 353.128C1599.53 353.113 1599.02 353.284 1598.61 353.611C1597.95 354.069 1597.18 354.346 1596.37 354.415C1595.57 354.483 1594.76 354.34 1594.03 354.001C1593.46 353.733 1592.78 353.923 1592.27 353.719C1590.57 353.094 1588.8 352.681 1586.99 352.492C1585.66 352.303 1585.03 352.281 1584.36 353.322C1584 353.876 1583.62 354.42 1583.25 354.962C1582.67 355.819 1582.05 356.059 1581.29 355.142C1580.35 354.008 1579.48 354.372 1578.72 355.35C1578.21 355.997 1577.75 356.681 1577.35 357.397C1577.18 357.746 1576.93 358.047 1576.62 358.272C1576.3 358.498 1575.94 358.639 1575.55 358.683C1574.73 358.789 1573.94 359.073 1573.23 359.514C1572.53 359.955 1571.93 360.542 1571.48 361.237C1570.7 362.312 1570.05 362.785 1568.85 361.715C1568.12 361.064 1567.31 360.864 1566.59 362.102C1566.48 362.373 1566.31 362.616 1566.09 362.81C1565.87 363.005 1565.61 363.147 1565.33 363.224C1565.04 363.301 1564.75 363.313 1564.46 363.256C1564.17 363.2 1563.9 363.078 1563.67 362.9C1563.49 362.803 1563.27 362.776 1563.07 362.826C1561.58 363.162 1558.97 366.038 1558.77 367.582C1558.7 368.18 1558.57 368.795 1557.83 368.602C1555.93 368.109 1554.88 369.371 1553.74 370.44C1553.1 371.039 1552.54 371.937 1551.6 371.844C1549.7 371.655 1548.22 372.516 1546.7 373.413C1545.79 373.952 1544.11 373.854 1543.86 374.366C1543.06 376.045 1541.97 375.432 1540.83 375.237C1540.28 375.121 1539.72 375.2 1539.23 375.462C1538.19 376.052 1537.75 375.634 1537.55 374.576C1537.41 373.895 1537.31 373.091 1536.63 372.703C1534.77 371.64 1532.77 372.019 1530.83 372.383C1529.56 372.62 1529.5 373.85 1529.21 374.838C1529.09 375.253 1529.04 375.791 1528.75 376.04C1527 377.564 1527.3 380.001 1526.12 381.773C1525.81 382.236 1525.98 383.17 1525.25 383.17C1524.63 383.165 1524.44 382.372 1524.19 381.818C1523.94 381.247 1523.79 380.81 1522.91 380.621C1520.88 380.174 1518.55 381.694 1516.76 379.664C1515.51 379.535 1514.26 379.525 1513.01 379.634C1511.87 380.25 1512.63 380.233 1511.89 381.171C1510.98 382.313 1511.55 382.734 1509.93 383.635C1508.45 384.458 1506.45 384.579 1504.84 385.077C1504.67 385.127 1504.51 385.182 1504.36 385.238C1501.59 386.252 1500.95 387.998 1498.74 390.038C1496.23 392.347 1492.91 393.754 1490.23 396.105C1486.54 399.461 1482.52 402.437 1478.22 404.987C1474.58 407.062 1472.1 411.356 1467.89 411.991C1463.63 412.635 1460.51 411.733 1456.45 413.528C1450.39 416.2 1444.91 419.882 1438.61 421.98C1434.77 423.116 1430.86 424.023 1426.9 424.695C1421.97 425.71 1416.92 426.675 1411.94 427.821C1411.85 425.987 1412.57 424.375 1415.05 423.236C1412.88 423.435 1411.52 421.91 1409.78 421.393C1408.86 421.122 1408.72 420.19 1409.76 419.953C1412.18 419.401 1414.33 417.84 1416.96 418.085C1418.4 418.218 1419.85 418.238 1421.29 418.309C1420.69 417.916 1420.01 417.672 1419.3 417.596C1416.66 417.275 1413.99 417.481 1411.44 418.201C1410.83 418.358 1409.87 418.624 1409.9 417.741C1409.94 416.108 1409.62 414.149 1411.44 413.169C1412.57 412.555 1412.49 412.112 1411.54 411.61C1410.25 410.927 1410.2 409.995 1410.58 408.749C1411.01 407.352 1412.06 407.451 1413.15 407.389C1415.72 407.232 1418.24 407.807 1420.79 407.934C1418.33 406.946 1415.7 406.445 1413.06 406.462C1412.29 406.462 1411.17 406.802 1411.29 405.329C1411.32 404.917 1411.46 404.368 1410.93 404.243C1410.25 404.084 1410.1 404.712 1410 405.175C1409.76 406.296 1408.92 406.618 1407.97 406.772C1405.07 407.132 1402.21 407.792 1399.45 408.741C1398.76 409.002 1397.79 408.773 1397.97 408.13C1398.44 406.467 1397.55 404.701 1398.78 403.04C1399.64 401.876 1400.71 400.225 1399.93 398.699C1399.08 397.043 1399.42 395.57 1399.75 393.989C1400.02 392.664 1400.32 391.344 1400.56 390.013C1400.67 389.393 1400.83 388.589 1399.96 388.436C1399.26 388.313 1399.07 389.022 1398.92 389.574C1398.8 389.983 1398.78 390.419 1398.68 390.833C1398 393.632 1397.9 396.646 1395.46 398.774C1395.18 399.06 1394.99 399.429 1394.93 399.826C1394.87 400.224 1394.93 400.631 1395.12 400.99C1395.61 402.007 1395.33 402.55 1394.36 402.991C1392.39 403.889 1391.35 405.785 1389.9 407.234C1389.72 407.413 1389.57 407.626 1389.47 407.861C1389.37 408.096 1389.32 408.348 1389.32 408.604C1389.32 408.859 1389.37 409.111 1389.47 409.347C1389.56 409.583 1389.71 409.798 1389.89 409.978C1391.37 411.663 1390.83 412.623 1389 413.481C1388.34 413.791 1386.9 414.089 1387.43 415.025C1387.91 415.873 1388.69 414.633 1389.35 414.364C1389.92 414.134 1390.46 413.456 1391.08 414.02C1391.57 414.645 1391.81 415.43 1391.75 416.222C1391.84 417.133 1391.02 417.126 1390.42 417.278C1389 417.637 1387.49 417.637 1386.16 418.496C1385.42 415.901 1385.7 413.29 1385.23 410.769C1385.05 409.422 1384.56 408.134 1383.81 407.002C1383.05 405.869 1382.05 404.921 1380.88 404.228C1380.21 403.838 1379.49 403.23 1378.71 403.575C1377.81 403.981 1378.19 404.964 1378.19 405.691C1378.15 411.18 1378.16 416.668 1378.17 422.152C1378.17 423.725 1377.9 425.345 1379.21 426.891C1377.64 426.846 1375.98 427.59 1375.75 425.572C1375.35 422.105 1377 418.521 1375.18 415.117C1376.48 413.154 1375.65 411.051 1375.67 408.983C1375.7 406.709 1376.14 404.393 1375.67 402.17C1375.05 399.16 1374.88 399.194 1377.14 397.361C1377.08 397.73 1377.06 398.102 1377.06 398.475C1377.17 399.561 1376.84 401.389 1377.93 401.429C1379.19 401.475 1378.91 399.623 1379 398.6C1379.25 395.905 1378.96 393.133 1379.49 390.516C1379.95 388.253 1380.28 386.634 1377.39 386.225C1377.09 386.183 1376.84 385.8 1376.56 385.576C1377.57 385.82 1378.73 386.485 1379.26 384.965C1380.36 381.801 1377.26 377.499 1373.91 377.489C1372.55 377.489 1371.2 377.489 1369.84 377.489C1365.78 377.489 1364.67 378.255 1363.76 382.117C1363.5 383.248 1362.65 384.783 1364.07 385.644C1365.58 386.565 1366.27 384.946 1367.19 384.152C1367.69 383.65 1368.23 383.181 1368.79 382.747C1370.58 381.557 1372.36 381.407 1374.02 383.025C1372.86 382.44 1371.52 382.297 1370.25 382.624C1368.99 382.95 1367.89 383.723 1367.15 384.798C1366.48 385.739 1365.47 386.387 1364.33 386.61C1364.05 386.608 1363.78 386.676 1363.54 386.808C1363.3 386.941 1363.1 387.133 1362.96 387.366C1362.82 387.6 1362.74 387.866 1362.73 388.138C1362.72 388.411 1362.79 388.681 1362.92 388.922C1363.7 391.354 1363.49 393.855 1363.61 396.337C1363.69 397.825 1363.92 399.308 1364.14 400.784C1364.19 401.165 1364.36 401.673 1364.93 401.583C1365.35 401.514 1365.45 401.109 1365.48 400.758C1365.58 399.62 1365.66 398.478 1365.75 397.173C1368.61 400.315 1368.69 401.007 1365.97 402.43C1363.76 403.579 1361.48 404.536 1359.35 405.877C1357.48 407.059 1356.71 406.4 1356.02 404.31C1355.39 402.384 1355.98 400.083 1354.19 398.494C1353.75 398.095 1353.97 397.414 1354.2 396.871C1354.39 396.27 1354.38 395.625 1354.17 395.029C1353.33 390.932 1352.77 386.808 1353.67 382.631C1354.47 378.91 1354.46 378.918 1358.03 379.455C1358.69 379.555 1359.59 379.993 1359.92 379.117C1360.26 378.241 1359.29 377.953 1358.74 377.575C1353.85 374.216 1348.96 370.874 1344.05 367.55C1342.73 366.688 1341.6 365.587 1340.69 364.304C1336.9 358.864 1333.04 353.468 1329.19 348.058C1327.18 345.216 1324.42 342.722 1324.84 338.74C1324.86 338.513 1324.63 338.257 1324.47 337.915C1323.38 339.703 1324.2 341.787 1323.28 343.363C1322.37 344.938 1320.96 346.231 1319.88 347.73C1316.47 352.482 1312.88 357.128 1309.81 362.094C1307.44 365.934 1303.9 368.181 1300.37 370.581C1299.79 370.981 1299.18 371.337 1298.93 370.298C1298.57 368.761 1297.38 368.857 1296.23 368.857C1275.12 368.857 1254.01 368.857 1232.9 368.857C1230.56 368.857 1229.27 370.377 1229.5 373.121C1229.68 375.153 1231.45 374.166 1232.55 374.419C1232.98 374.471 1233.41 374.475 1233.84 374.433C1244.64 374.386 1255.44 374.219 1266.23 374.326C1274.46 374.407 1282.68 374.453 1290.91 374.348C1293.64 374.314 1296.37 374.343 1299.09 374.343C1299.09 374.576 1299.1 374.809 1299.1 375.041C1298.26 375.331 1297.36 375.414 1296.49 375.282C1275.31 375.293 1254.13 375.261 1232.95 375.32C1229.62 375.329 1226.38 375.458 1223.8 372.825C1223.38 372.44 1222.86 372.167 1222.3 372.033C1221.1 371.788 1219.99 371.215 1219.09 370.379C1218.2 369.543 1217.56 368.475 1217.23 367.296C1216.78 365.742 1216.93 363.692 1218.09 363.464C1219.6 363.17 1220.14 362.566 1219.41 361.129C1219.23 360.791 1219.13 360.394 1219.42 360.131C1221.06 358.652 1220.65 357.616 1218.78 356.824C1218.68 356.774 1218.6 356.704 1218.54 356.618C1218.48 356.533 1218.44 356.435 1218.42 356.331C1218.29 353.405 1217.1 350.671 1216.73 347.837C1216.31 344.598 1215.72 341.334 1214.99 338.227C1214.44 335.866 1214 333.359 1213.35 330.977C1212.04 326.599 1211.35 322.059 1211.3 317.49C1211.31 317.036 1211.36 316.335 1210.62 316.433C1210.13 316.498 1210.18 317.081 1210.18 317.504C1210.24 323.353 1208.17 328.867 1207.46 334.592C1207.13 337.242 1205.82 339.642 1205.8 342.419C1205.79 343.411 1205.87 345.002 1205.32 345.634C1204.22 346.898 1204.74 348.389 1204.23 349.717C1203.19 352.405 1203.91 355.704 1201.26 357.924C1200.65 358.44 1200.99 359.288 1201.69 359.741C1202.24 360.101 1202.57 360.486 1202.2 361.133C1201.37 362.549 1201.88 363.256 1203.41 363.464C1203.58 363.491 1203.75 363.563 1203.89 363.673C1204.03 363.783 1204.14 363.927 1204.21 364.091C1205.05 365.747 1203.35 370.344 1201.6 370.977C1195.39 373.205 1191.39 377.196 1190.33 383.968C1189.71 387.895 1188.52 391.732 1187.56 395.605C1186.88 398.399 1186.88 398.434 1189.87 398.437C1196.67 398.444 1203.46 398.444 1210.26 398.437H1218.87V398.795H1216.51C1206.71 398.795 1196.9 398.795 1187.1 398.795C1183.92 398.8 1183.53 399.418 1185.02 402.088C1185.14 402.345 1185.19 402.629 1185.17 402.912C1185.15 403.196 1185.05 403.469 1184.89 403.703C1184.64 404.236 1184.1 404.262 1183.59 404.228C1183.45 404.227 1183.3 404.196 1183.17 404.138C1183.04 404.08 1182.92 403.996 1182.82 403.892C1182.72 403.787 1182.65 403.663 1182.6 403.528C1182.55 403.393 1182.53 403.25 1182.53 403.106C1182.44 401.972 1182.3 400.837 1182.29 399.701C1182.21 395.089 1182 390.469 1182.19 385.866C1182.36 381.368 1181.23 376.785 1183.19 372.364C1183.33 371.958 1183.38 371.526 1183.33 371.099C1183.29 370.672 1183.15 370.26 1182.92 369.893C1182.7 369.527 1182.39 369.214 1182.03 368.978C1181.67 368.741 1181.26 368.587 1180.84 368.527C1180.32 368.447 1180.03 368.427 1180.07 367.835C1180.24 365.792 1179.73 363.693 1180.6 361.709C1180.9 361.219 1181 360.631 1180.87 360.072C1180.4 358.63 1179.8 357.484 1177.9 357.714C1176.35 357.901 1174.3 357.215 1173.31 357.987C1171.66 359.266 1170.94 356.863 1169.55 357.674C1168.8 358.107 1167.59 357.721 1166.59 357.746C1164.54 357.798 1163.24 359.358 1163.91 361.245C1164.56 363.074 1164.34 364.901 1164.4 366.738C1164.47 367.125 1164.38 367.522 1164.16 367.847C1163.94 368.172 1163.6 368.401 1163.22 368.485C1162.83 368.624 1162.48 368.844 1162.19 369.13C1161.9 369.417 1161.67 369.762 1161.52 370.143C1161.38 370.525 1161.31 370.933 1161.34 371.34C1161.37 371.748 1161.48 372.145 1161.67 372.506C1162.82 375.018 1162.57 377.518 1162.6 380.049C1162.65 384.34 1162.61 384.353 1158.44 384.221C1157.92 384.204 1157.15 384.553 1156.93 383.841C1156.76 383.274 1157.38 382.85 1157.72 382.406C1158.77 381.027 1160.31 380.047 1161.43 378.043C1158.75 379.326 1157.02 381.094 1154.91 382.588C1155.06 380.27 1156.99 378.824 1157.06 376.686C1154.74 379.454 1152.58 382.288 1151.74 386.186C1149.28 382.848 1146.1 381.285 1142.77 379.909C1143.98 381.541 1145.98 382.304 1147.41 384.256C1144.74 383.93 1142.57 382.952 1140.22 383.282C1142.3 384.539 1144.67 385.113 1146.78 386.442C1141.88 389.117 1136.45 391.079 1135.39 397.565L1134.58 394.033C1133.59 396.718 1134.58 398.905 1134.71 401.112C1130.73 400.779 1130.07 400.836 1127.98 401.682C1128.86 402.267 1130.09 401.498 1130.99 402.409C1129.91 403.468 1128.28 403.448 1127.21 404.598C1128.26 404.923 1129.03 404.399 1129.85 404.283C1130.46 404.194 1131.18 403.729 1131.66 404.309C1132.06 404.808 1131.46 405.355 1131.29 405.876C1130.77 407.419 1129.94 408.879 1129.87 411.091L1132.09 407.664C1132.11 409.776 1131.42 411.48 1132.11 413.319C1133.06 412.222 1132.54 410.886 1133.33 410.003C1133.94 411.4 1133.57 413.065 1134.6 414.494C1135.23 413.176 1134.56 411.922 1135.12 410.588C1135.86 412.018 1136.52 413.303 1137.18 414.589C1137.1 412.889 1136.84 411.203 1136.41 409.558C1136.23 408.888 1136.31 408.175 1136.64 407.562C1136.96 406.949 1137.51 406.482 1138.17 406.254C1139.56 405.755 1139.75 407.375 1140.17 408.224C1142.19 412.248 1142.05 412.825 1138.91 415.952C1135.56 419.28 1134.61 423.543 1134.16 428.019C1133.9 430.614 1134.08 430.913 1136.65 430.918C1144.09 430.931 1151.54 430.918 1158.98 430.935C1159.7 430.785 1160.46 430.914 1161.09 431.296C1152.26 431.296 1143.68 431.296 1135.1 431.296C1134.39 431.296 1133.67 431.296 1132.96 431.351C1132.17 431.415 1131.56 431.776 1131.53 432.648C1131.51 433.012 1131.62 433.371 1131.85 433.653C1132.08 433.936 1132.41 434.12 1132.77 434.168C1133.48 434.294 1134.19 434.347 1134.9 434.327C1142.7 434.338 1150.5 434.34 1158.3 434.335H1160.46C1151.08 434.703 1141.72 434.734 1132.35 434.677C1130.57 434.667 1129.11 434.869 1128.76 437.712C1128.24 436.842 1128.01 436.554 1127.87 436.232C1127.31 434.935 1125.48 433.585 1128.48 432.66C1129.85 432.234 1129.7 430.444 1129.38 429.251C1129.05 428.027 1127.83 427.864 1126.71 428.166C1125.81 428.407 1124.94 428.99 1124.02 428.645C1119.44 426.926 1114.8 428.307 1110.2 428.322C1108.75 428.291 1107.33 428.807 1106.24 429.767C1105.15 430.727 1104.47 432.061 1104.32 433.503C1104.12 435.611 1104.32 437.737 1104.91 439.772C1102.41 439.758 1099.9 439.666 1097.41 439.8C1095.08 439.925 1093.94 439.231 1093.53 436.76C1092.69 431.754 1091.02 426.781 1087.57 423.129C1083.61 418.959 1082.88 414.358 1083.33 409.136C1083.38 408.561 1083.35 407.979 1083.35 407.401C1083.35 403.336 1083.35 403.258 1079.14 403.262C1077.09 403.262 1076.09 402.717 1075.64 400.479C1074.75 396.082 1072.62 392.129 1068.35 390.243C1065.79 389.111 1063.39 388.312 1063.2 384.969C1063.01 389.186 1059.62 390.213 1056.83 390.369C1053.66 390.545 1050.33 389.095 1050.2 384.495C1049.7 385.34 1049.38 386.276 1049.26 387.247C1049 389.763 1046.71 389.561 1045.29 389.685C1043.87 389.809 1044.51 388.018 1044.51 387.113C1044.45 376.699 1044.46 366.284 1044.48 355.87C1044.48 354.053 1044.61 352.293 1041.97 352.313C1040.68 352.322 1040.93 351.246 1040.81 350.402C1040.21 346.397 1040.19 346.405 1036.15 346.417C1034.5 346.422 1032.86 346.456 1031.21 346.384C1027.37 346.218 1026.63 345.369 1026.48 341.456C1026.41 339.59 1027.08 337.648 1025.97 335.523C1025.69 336.002 1025.48 336.516 1025.33 337.052C1025.19 338.678 1025.12 340.312 1025.05 341.942C1024.9 345.634 1023.81 346.582 1020.21 346.239C1018.68 346.091 1017.13 346.016 1015.58 346.013C1011.87 346.004 1011.49 346.381 1011.12 350.063C1011.04 350.938 1011.53 352.298 1010 352.245C1007.03 352.146 1007.12 354.069 1007.12 356.101C1007.14 367.095 1007.13 378.088 1007.11 389.081C1007.1 392.333 1006.04 392.699 1002.99 391.858C1000.04 391.045 997.053 389.586 993.817 390.56C992.398 390.987 991.003 392.603 989.632 390.415C989.378 390.008 988.823 390.258 988.407 390.658C987.54 391.491 986.412 392.004 985.212 392.112C984.011 392.219 982.81 391.914 981.807 391.248C980.721 390.449 979.425 389.981 978.077 389.901C976.991 389.78 975.03 390.215 975.933 387.84C976.002 387.657 975.583 387.133 975.287 387.005C974.74 386.767 974.419 386.974 974.449 387.678C974.484 388.483 973.847 388.603 973.246 388.477C972.545 388.335 972.532 387.687 972.41 387.114C972.177 386.009 972.747 384.668 971.383 383.501C971.06 384.597 970.825 385.718 970.682 386.852C970.628 388.149 969.966 388.639 968.848 389.067C963.952 390.94 961.557 389.866 960.194 384.841C959.68 382.945 959.067 384.213 958.566 384.641C957.928 383.558 959.098 382.53 958.201 381.177C957.589 383.058 957.607 385.086 958.252 386.957C958.518 387.779 958.586 388.469 957.607 388.853C956.725 389.196 956.051 389.012 955.803 388.054C955.727 387.626 955.499 387.239 955.162 386.963C954.824 386.686 954.399 386.539 953.962 386.547C953.019 386.462 951.557 387.059 951.517 385.356C951.477 383.837 950.828 382.128 953.061 381.21C954.665 380.552 954.974 372.87 953.589 371.911C953.162 371.688 952.691 371.561 952.21 371.54C949.339 371.127 948.374 370.984 948.046 369.653C947.855 369.508 947.687 369.336 947.545 369.142C947.301 369.142 947.057 369.111 946.821 369.051C946.533 368.97 946.26 368.847 946.008 368.687L945.986 368.695C945.14 368.901 944.768 368.346 944.505 367.66C944.312 367.161 944.426 366.445 943.603 366.363C942.423 366.916 942.812 369.144 941.279 368.989C939.564 368.814 941.045 366.434 939.682 365.803C938.479 365.944 939.1 367.709 937.523 367.732C933.816 360.454 930.048 353.103 926.345 345.718C925.816 344.663 925.592 343.438 924.041 343.6C922.585 343.753 922.036 343.138 921.761 341.704C921.397 340.554 921.159 339.369 921.048 338.169C921.07 334.899 918.231 335.856 915.322 335.575C918.397 334.377 916.736 332.281 917.578 330.753C918.724 328.679 918.434 327.485 915.522 327.338C911.663 327.138 910.951 325.453 912.973 322.335C914.017 322.691 913.667 323.832 914.181 324.478C914.309 324.685 914.501 324.844 914.729 324.931C914.957 325.017 915.207 325.026 915.441 324.956C915.742 324.842 916.21 324.387 916.158 324.223C915.743 322.908 915.958 320.711 914.397 320.631C912.282 320.522 912.703 319.346 912.584 318.208C912.506 317.456 912.766 316.605 912.119 316.012C910.094 314.16 910.456 311.322 909.197 309.126C907.78 306.645 907.266 303.771 906.413 300.869C906.036 304.761 904.242 307.955 902.924 311.305C902.781 311.56 902.724 311.854 902.76 312.144C903.593 314.293 902.007 315.458 900.807 316.652C899.49 317.961 897.918 318.947 899.689 321.075C900.009 321.445 900.23 321.89 900.331 322.368C900.431 322.846 900.409 323.342 900.266 323.809C899.208 326.915 899.595 330.096 899.901 333.244C900.005 333.596 899.996 333.971 899.877 334.319C899.758 334.666 899.534 334.968 899.235 335.184C896.646 337.291 894.437 339.822 892.702 342.668C891.686 344.286 889.48 345.238 889.526 347.863C886.907 344.238 881.797 344.325 879.224 340.612C878.904 340.149 878.4 340.555 877.938 340.706C875.479 341.511 873.267 340.428 871.038 339.645C870.521 339.463 869.924 338.988 870.23 338.318C871.748 334.989 869.244 332.26 869.056 329.166C868.279 332.26 866.476 335.121 867.638 338.457C867.939 339.318 867.059 339.825 866.296 340.053C865.464 340.302 864.592 340.416 863.741 340.599C849.452 343.693 838.545 354.884 837.5 367.956C837.256 371 836.113 371.604 833.406 371.536C827.309 371.381 821.206 371.48 815.106 371.484C810.897 371.484 810.782 371.608 810.764 375.922C810.764 377.065 810.764 378.21 810.764 379.353C809.717 375.278 810.795 371.284 810.79 367.252C810.768 347.936 810.751 328.618 810.741 309.299C810.405 309.529 810.024 309.686 809.623 309.76C809.665 311.157 809.547 312.554 807.719 312.762C804.854 313.083 801.569 314.213 799.148 311.812C796.399 309.085 793.82 308.662 790.854 311.073C789.527 312.152 788.059 312.606 786.745 311.173C785.596 310 784.608 308.68 783.808 307.248C781.213 302.193 778.549 297.151 776.36 291.917C775.086 288.87 772.462 286.655 771.619 283.412C771.539 283.104 770.849 282.841 770.405 282.757C768.601 282.414 766.66 281.607 764.993 281.973C761.923 282.649 761.054 281.526 761.165 278.796C761.165 278.738 760.859 278.668 760.646 278.585C759.893 279.611 760.235 280.8 760.232 281.901C760.207 295.207 760.208 308.515 760.237 321.824C760.244 324.46 760.257 327.005 758.321 329.158C757.519 330.045 757.608 331.3 757.644 332.481C757.78 334.114 757.747 335.756 757.544 337.382C757.402 338.348 756.933 339.237 756.215 339.902C755.497 340.567 754.572 340.969 753.594 341.039C751.898 341.018 752.833 338.818 752.821 337.646C752.73 328.761 752.682 319.877 752.677 310.992C752.653 310.992 752.628 310.992 752.603 310.998C752.674 291.496 753.447 226.819 754.059 211.304C754.259 206.104 752.794 200.463 756.163 195.597C756.226 195.469 756.255 195.327 756.25 195.184C756.245 195.042 756.204 194.903 756.132 194.779C754.549 192.954 757.296 190.448 755.175 188.683C755.075 188.6 755.409 187.756 755.725 187.471C756.081 187.139 756.349 186.723 756.505 186.263C756.66 185.802 756.699 185.31 756.617 184.831C756.204 180.712 758.052 177.271 759.69 173.705C762.831 166.867 767.907 160.674 766.596 152.323C766.172 149.618 767.698 146.327 766.077 144.115C763.3 140.335 763.151 136.131 762.554 131.905C762.273 129.909 761.903 127.913 761.507 125.934C761.359 125.192 761.006 124.038 760.224 124.262C757.542 125.023 757.837 122.988 757.337 121.579C756.803 120.073 756.729 117.787 755.211 117.408C752.444 116.709 752.861 114.907 752.713 113.005C752.513 110.436 754.175 107.079 749.971 105.999C749.65 105.917 749.342 105.223 749.28 104.778C748.815 101.447 746.826 98.5238 747.221 94.8923C747.476 90.9466 747.506 86.9897 747.31 83.0407C747.294 80.5628 746.688 78.042 748.143 75.7069C748.24 75.5631 748.305 75.4001 748.334 75.2291C748.363 75.058 748.355 74.8828 748.31 74.7152C748.265 74.5477 748.184 74.3916 748.074 74.2576C747.963 74.1236 747.825 74.0147 747.669 73.9384C745.929 73.1081 746.338 71.5594 746.266 70.1663C745.68 59.0722 746.945 47.9761 745.893 36.85C745.376 31.3793 744.96 25.6979 746.427 20.1843C746.486 19.9541 746.496 19.714 746.456 19.4797C746.417 19.2454 746.328 19.0221 746.196 18.8242C744.843 17.3552 745.172 15.5768 745.161 13.8734C745.133 9.27285 745.151 4.67238 745.151 0.0718732L744.19 0C744.061 0.323186 743.96 0.65713 743.89 0.997941C743.142 7.22909 745.182 13.6718 742.447 19.7593C742.347 19.9738 742.56 20.3121 742.59 20.5975C743.292 27.156 744.261 33.7205 741.958 40.1921C741.803 40.7434 741.85 41.3313 742.089 41.8517C742.591 43.2054 742.781 44.6542 742.645 46.091C742.657 53.5166 742.695 60.9422 742.622 68.3659C742.601 70.4616 743.437 72.8667 740.919 74.3476C740.411 74.647 740.56 75.4273 740.875 75.9443C741.786 77.4512 741.576 79.1138 741.582 80.7394C741.614 86.4277 742.083 92.1679 741.467 97.7873C741.106 101.08 740.818 105.078 736.977 107.022C735.858 107.589 735.82 108.767 735.841 109.816C735.872 111.353 736.097 112.886 736.166 114.425C736.205 115.271 736.397 116.569 735.491 116.752C732.024 117.451 732.083 120.501 731.056 122.84C730.756 123.516 730.582 124.796 729.827 124.581C726.713 123.695 727.25 126.269 726.99 127.612C726.349 130.915 726.576 134.463 725.504 137.591C723.608 143.119 720.508 148.312 722.375 154.496C720.493 157.472 722.431 159.99 723.367 162.623C723.524 163.08 723.728 163.52 723.975 163.936C724.188 164.268 724.353 164.63 724.464 165.009C724.671 165.308 724.821 165.643 724.906 165.997C725.176 166.324 725.371 166.706 725.477 167.117C728.019 167.503 729.155 168.89 730.718 171.595C731.968 173.761 732.481 176.193 733.883 178.281C734.849 179.738 735.307 181.47 735.186 183.211C735.096 184.698 734.747 186.33 735.865 187.663C736.324 188.21 736.533 188.793 736.124 189.341C736.05 190.827 735.892 192.307 735.65 193.775C735.657 193.914 735.663 194.054 735.67 194.193C737.217 197.011 737.29 200.561 737.449 204.055C737.623 206.172 737.507 208.302 737.104 210.388C736.886 211.031 736.893 211.728 737.123 212.367C739.312 215.941 738.432 219.871 738.478 223.655C738.615 234.931 738.615 246.202 738.586 257.477C738.586 258.187 738.512 302.346 738.306 311.136C738.115 311.136 737.924 311.146 737.731 311.147C737.367 311.461 736.916 311.659 736.437 311.716C733.512 312.236 730.425 314.949 727.882 311.181C727.632 310.667 727.233 310.239 726.736 309.955C726.239 309.67 725.667 309.541 725.095 309.584C723.934 309.753 722.749 309.58 721.686 309.087C720.622 308.594 719.726 307.802 719.109 306.809C718.545 313.096 722.427 318.259 720.188 324.128C720.188 322.103 720.188 320.473 720.188 318.839C720.188 317.206 720.36 315.568 718.947 314.273C718.764 314.05 718.627 313.794 718.543 313.519C718.46 313.244 718.432 312.955 718.46 312.669C719.099 305.303 716.766 298.38 715.31 291.328C715.257 290.85 715.172 290.376 715.055 289.909C714.773 289.105 715.506 287.537 714.092 287.642C713.45 287.672 712.84 287.935 712.38 288.383C711.92 288.831 711.64 289.431 711.595 290.071C711.561 292.073 711.079 293.578 709.001 294.393C708.569 294.638 708.226 295.013 708.021 295.463C707.815 295.914 707.757 296.417 707.855 296.902C708.217 299.413 706.725 301.715 707.279 304.256C707.322 304.571 707.3 304.89 707.216 305.196C707.133 305.502 706.988 305.788 706.791 306.038C706.594 306.287 706.349 306.494 706.07 306.647C705.791 306.8 705.484 306.896 705.167 306.929C704.077 307.099 704.308 305.623 704.183 304.884C703.562 301.215 703.873 297.489 703.468 293.764C702.45 285.662 702.017 277.498 702.174 269.334C702.68 255.175 702.085 241.004 702.161 226.838C702.172 224.79 702.862 222.786 702.662 220.72C702.006 219.52 701.453 218.268 701.01 216.975C699.163 216.729 698.644 215.617 698.674 213.442C698.79 205.15 698.715 196.856 698.714 188.563C698.714 168.022 698.718 147.482 698.727 126.943C698.727 125.437 698.213 123.688 699.328 122.481C700.275 121.46 700.983 120.606 700.359 119.233C699.616 117.599 698.074 118.045 696.793 118.029C692.145 117.973 687.496 118.005 682.849 117.984C681.672 117.978 680.261 117.996 680.235 116.398C680.162 111.88 679.573 107.317 680.518 102.859C681.164 99.8161 681.211 99.5886 678.128 99.4658C675.919 99.376 673.296 100.313 671.602 98.9838C669.63 97.437 670.968 94.6338 670.734 92.3974C670.581 90.9324 670.24 89.9834 668.501 90.162C665.461 90.4744 665.036 88.2659 664.815 86.0924C664.803 84.8347 665.069 83.5898 665.594 82.4459C666.178 80.8073 666.455 79.1847 663.751 79.6677C662.818 79.8343 662.493 79.2954 662.37 78.5929C661.644 74.4384 660.618 70.3279 659.905 66.1984C659.177 61.9861 659.462 57.5702 659.252 53.2451C659.116 50.4399 657.804 47.3314 660.035 44.6369C660.19 44.3803 660.24 44.0738 660.174 43.7815C660.107 43.4892 659.929 43.2339 659.678 43.0691C658.396 42.137 658.661 40.6741 658.336 39.3877C658.211 39.4875 658.101 39.5265 658.081 39.5934C657.253 42.3838 656.947 45.302 657.179 48.2026C657.665 58.1829 656.697 68.1808 654.303 77.8844C654.098 78.7655 654.117 80.0289 652.671 79.7884C650.251 79.3892 650.649 80.7993 651.03 82.1974C651.283 83.1265 651.697 84.0147 651.909 84.9507C652.532 87.6931 651.128 89.9215 648.458 90.2268C648.143 90.2175 647.831 90.278 647.542 90.4036C647.254 90.5292 646.997 90.7169 646.791 90.9532C646.584 91.1896 646.433 91.4687 646.348 91.7704C646.263 92.0721 646.246 92.3889 646.298 92.6978C646.307 94.047 646.221 95.4012 646.293 96.7465C646.394 98.7324 645.506 99.5596 643.537 99.4987C641.506 99.4368 639.47 99.4937 637.437 99.5187C636.124 99.5347 634.92 99.9728 635.287 101.509C636.367 106.034 636.169 110.59 636.178 115.18C636.178 117.517 635.335 118.026 633.34 118.011C628.401 117.975 623.463 117.984 618.525 118.039C616.104 118.068 615.018 119.536 616.394 121.261C617.997 123.264 617.814 125.363 617.816 127.527C617.836 157.902 617.838 188.278 617.822 218.654C617.776 246.965 618.059 275.278 617.569 303.57C614.815 303.613 614.418 301.833 614.463 299.799C614.531 296.818 614.189 293.816 614.864 290.861C615.04 290.09 615.246 289.035 614.572 288.695C612.281 287.541 611.893 284.675 609.669 283.543C609.086 283.272 608.616 282.809 608.338 282.231C608.06 281.654 607.992 280.998 608.145 280.377C608.752 277.764 607.357 275.881 606.558 273.951C603.953 274.935 604.43 277.039 604.43 278.941C604.5 279.567 604.403 280.201 604.15 280.778C603.898 281.356 603.497 281.858 602.989 282.234C600.338 284.043 599.096 287.246 596.294 288.914C596.055 289.077 595.869 289.306 595.761 289.574C595.652 289.842 595.625 290.135 595.684 290.418C595.815 292.667 595.798 294.922 595.634 297.169C595.426 300.873 595.574 300.881 592.096 300.02C589.41 299.355 588.419 300.146 588.507 302.855C588.538 303.784 588.512 304.714 588.512 305.743C586.941 304.021 585.86 301.913 585.381 299.636C585.177 299.685 584.968 299.713 584.758 299.721C578.878 299.959 573.034 300.818 567.135 300.686C566.679 300.68 566.23 300.57 565.823 300.363C561.769 300.352 557.714 300.2 553.661 300.278C551.321 300.323 549.865 300.171 548.965 299.536C548.6 299.777 548.19 299.942 547.759 300.021C547.328 300.099 546.886 300.089 546.459 299.991C546.444 310.545 546.433 321.098 546.425 331.65C546.425 333.868 546.395 336.086 546.38 338.304C546.371 339.576 546.085 340.699 544.505 340.655C541.717 340.577 538.522 341.665 536.257 340.163C534.311 338.874 535.703 335.839 535.436 333.595C535.425 333.499 535.423 333.403 535.429 333.306C535.504 331.464 534.614 330.7 532.775 330.772C530.842 330.848 528.903 330.772 526.963 330.783C525.46 330.791 524.746 329.928 524.953 328.587C525.161 327.246 523.776 325.444 526.105 324.668C528.911 323.735 529.074 322.715 527.29 320.186C526.08 318.472 523.452 316.947 526.045 314.306C526.181 314.001 526.235 313.667 526.203 313.336C526.17 313.005 526.053 312.687 525.862 312.414C524.523 311.28 524.716 310.582 525.797 309.253C527.217 307.507 525.07 306.622 524.454 305.307C524.007 304.351 527.495 302.698 525.746 301.151C523.053 298.771 523.382 295.879 523.257 292.994C522.837 283.307 518.948 275.718 510.094 271.098C507.975 269.991 507.578 268.55 508.929 266.661C509.956 265.225 510.222 263.891 508.842 262.544C508.475 262.186 508.19 261.722 508.462 261.255C509.876 258.82 508.323 257.929 506.038 257.41C508.142 255.702 509.288 254.132 506.701 252.391C506.113 251.992 506.108 251.839 506.644 251.425C509.459 249.253 507.484 247.939 505.663 246.665C508.168 244.432 508.103 243.778 505.089 241.315C506.686 240.63 507.701 239.099 506.634 237.922C504.638 235.727 507.875 232.749 505.196 230.915C507.227 228.707 505.43 227.19 504.365 225.382C503.708 224.08 503.464 222.61 503.663 221.167C503.88 218.477 503.517 215.772 502.598 213.233C502.398 212.679 502.235 212.071 501.474 212.168C500.895 212.241 500.749 212.767 500.649 213.234C500.328 214.533 500.074 215.847 499.887 217.171C499.486 220.832 500.324 224.732 497.588 227.926C497.433 228.167 497.342 228.442 497.322 228.728C497.302 229.013 497.354 229.298 497.473 229.558C499.333 231.654 495.385 234.49 498.391 236.372C498.285 236.523 498.212 236.732 498.066 236.815C496.112 237.942 495.903 239.029 497.486 240.907C498.95 242.641 495.073 242.984 495.922 244.857C496.139 245.272 496.475 245.613 496.887 245.837C497.819 246.36 498.049 246.848 496.996 247.458C493.964 249.217 495.706 250.532 497.53 251.765C494.523 253.86 494.531 254.768 497.663 257.492C495.402 257.963 494.047 258.995 494.957 261.458C495.076 261.779 494.715 262.35 494.456 262.725C493.984 263.278 493.726 263.981 493.728 264.706C493.73 265.432 493.992 266.134 494.467 266.684C495.818 268.48 495.317 269.891 493.305 270.847C490.974 271.826 488.873 273.276 487.135 275.105C485.113 277.439 482.751 279.733 481.577 282.49C479.489 287.38 479.638 292.826 479.113 298.071C478.983 299.368 478.623 299.917 477.325 300.173C475.847 300.463 474.912 301.515 476.199 302.833C477.65 304.318 477.967 305.644 476.914 307.446C476.718 307.892 476.628 308.377 476.649 308.864C476.67 309.35 476.803 309.825 477.037 310.253C477.283 310.852 477.839 311.483 477.179 312.099C475.089 314.05 478.315 315.053 477.97 316.49C477.558 318.205 474.268 317.528 474.509 320.137C474.515 320.716 474.452 321.293 474.323 321.858C474.182 322.79 474.617 324.054 473.721 324.573C472.036 325.546 470.041 325.842 468.144 325.4C467.282 325.209 466.526 324.699 466.027 323.974C465.463 324.422 464.747 324.638 464.027 324.575C463.308 324.513 462.64 324.177 462.162 323.637C462.124 341.152 461.982 358.665 461.595 376.179C461.552 378.163 461.436 380.105 460.005 381.668C459.447 353.578 459.304 325.51 459.253 297.451C458.749 297.591 458.22 297.61 457.708 297.506C456.706 297.307 455.724 297.136 454.729 297.007C454.115 297.314 453.43 297.453 452.744 297.411C438.995 297.403 425.245 297.409 411.495 297.428C411.035 297.479 410.57 297.428 410.133 297.277C409.697 297.127 409.299 296.882 408.969 296.559C407.677 296.675 406.347 296.708 405.03 296.834C404.612 296.853 404.196 296.771 403.817 296.596C403.438 296.42 403.108 296.155 402.854 295.825C402.848 301.691 402.842 307.556 402.835 313.421C402.835 314.382 403.227 315.499 402.25 316.367C401.333 315.633 400.54 314.455 399.686 314.409C396.201 314.22 396.46 311.932 396.461 309.545C396.485 260.173 396.494 210.8 396.488 161.427C396.488 154.58 396.447 147.733 396.503 140.887C396.522 138.566 395.601 137.561 393.216 137.644C390.122 137.752 387.019 137.664 383.921 137.634C382.956 137.624 381.706 137.676 381.609 136.431C381.409 133.861 379.756 133.629 377.76 133.644C376.689 133.652 375.234 133.577 375.463 132.147C375.806 129.996 374.885 127.832 375.422 125.853C376.243 122.829 374.814 122.56 372.482 122.65C370.151 122.74 367.659 122.139 365.56 122.826C363.389 123.536 362.079 120.054 360.059 122.203C359.831 121.918 359.634 121.61 359.473 121.283C359.211 120.593 359.661 119.749 358.994 119.051C358.284 119.912 359.171 121.236 357.992 122.036C356.508 120.379 357.508 118.117 356.5 115.574C356.374 117.651 356.3 118.904 356.222 120.156L355.768 120.139V115.162C355.343 116.936 355.039 118.737 354.857 120.551C354.606 121.992 354.069 123.53 352.393 121.462C352.024 121.008 351.601 120.736 351.291 121.31C350.249 123.255 348.453 122.6 346.896 122.632C343.509 122.703 340.119 122.662 336.73 122.697C335.634 122.708 334.206 122.872 334.474 124.257C334.887 126.398 334.112 128.51 334.549 130.544C335.063 132.939 334.242 133.75 331.931 133.688C330.508 133.65 328.813 133.511 328.585 135.56C328.384 137.364 327.291 137.679 325.757 137.656C322.66 137.616 319.56 137.699 316.462 137.649C314.581 137.619 313.726 138.148 313.742 140.305C313.851 156.021 313.79 171.74 313.896 187.457C313.907 189.154 312.468 190.699 312.78 191.824C313.252 193.867 313.442 195.965 313.344 198.058C313.429 230.17 313.448 262.282 313.401 294.394C313.473 295.015 313.407 295.644 313.207 296.236C313.007 296.829 312.678 297.37 312.244 297.822C311.136 298.77 310.301 299.994 309.823 301.369C309.345 302.744 309.241 304.221 309.523 305.648C309.77 307.013 309.511 308.289 308.09 308.754C306.046 309.424 304.774 310.568 304.847 313.037C303.268 310.537 302.445 307.636 302.477 304.682C302.51 257.143 302.503 209.602 302.456 162.062C302.456 154.925 302.396 147.791 302.467 140.654C302.49 138.408 301.628 137.538 299.374 137.626C296.28 137.747 293.178 137.668 290.079 137.639C289.036 137.63 287.61 137.78 287.547 136.36C287.43 133.688 285.795 133.572 283.785 133.636C282.8 133.668 281.097 133.821 281.557 132.28C282.258 129.943 281.164 127.682 281.779 125.419C282.301 123.498 281.311 122.715 279.507 122.695C276.892 122.665 274.278 122.655 271.663 122.665C269.888 122.675 268.056 122.841 267.874 120.49C266.671 120.483 267.281 122.094 266.139 121.858C265.438 120.959 266.261 119.549 265.203 118.741C264.146 119.617 265.116 121.113 263.947 121.934C263.35 120.651 263.215 119.202 263.566 117.831C263.713 117.243 263.619 116.62 263.306 116.101C262.992 115.581 262.485 115.207 261.894 115.06C260.459 115.054 261.254 116.613 261.105 117.494C260.961 118.338 261.118 119.229 261.041 120.088C260.88 121.921 260.666 123.814 258.321 121.518C257.9 121.105 257.738 121.192 257.501 121.624C256.715 123.056 255.314 122.622 254.122 122.643C250.444 122.699 246.763 122.649 243.084 122.676C241.791 122.685 240.144 122.821 240.439 124.517C240.796 126.571 240.061 128.569 240.466 130.521C240.94 132.805 240.46 133.839 237.916 133.565C236.562 133.42 235.01 133.559 234.949 135.469C234.876 137.564 233.538 137.664 231.965 137.656C228.964 137.632 225.958 137.756 222.962 137.632C220.538 137.532 219.748 138.556 219.777 140.891C219.868 148.315 219.808 155.741 219.807 163.166C219.807 170.288 219.807 177.41 219.807 184.933C218.365 183.846 217.019 183.985 215.692 183.985C212.012 183.985 208.333 183.987 204.654 183.99C199.608 183.99 198.31 185.159 197.691 190.2C197.582 191.098 197.754 191.985 196.241 192.188C188.867 193.175 181.51 192.437 174.149 192.173C172.207 192.105 170.549 192.193 170.565 194.697C170.609 201.539 170.408 208.378 170.722 215.225C170.977 220.786 170.822 226.367 170.877 231.939C170.936 237.88 170.03 243.795 170.013 249.703C169.948 271.194 169.728 292.684 170.17 314.177C170.415 326.11 170.019 338.058 169.92 350.003C169.893 353.281 169.9 356.559 169.89 359.839C169.89 361.182 169.402 362.062 167.868 362.06C166.334 362.058 165.845 361.138 165.878 359.813C165.932 357.623 165.585 355.437 166.693 353.305C167.741 351.286 167.621 349.381 164.976 348.464C164.375 348.256 163.351 347.575 163.409 347.399C164.224 344.904 162.808 342.589 162.956 340.168C163.235 335.517 160.981 331.247 160.841 326.65C160.827 326.21 160.583 325.611 159.957 325.747C159.788 325.815 159.637 325.92 159.515 326.055C159.394 326.19 159.305 326.351 159.255 326.525C158.502 329.918 158.021 333.366 157.388 336.772C156.729 340.388 156.43 344.06 156.495 347.734C156.506 348.49 156.067 350.528 154.116 350.504C151.21 350.467 148.404 351.315 145.464 351.224C140.337 351.066 135.202 351.174 130.069 351.186C125.632 351.197 125.635 351.207 125.059 355.649C125.008 356.048 124.83 356.38 124.017 356.205C123.51 354.36 124.919 352.645 124.808 350.788C124.772 350.177 124.824 349.558 124.088 349.449C123.619 349.359 123.133 349.451 122.73 349.708C122.238 350.146 122.84 350.536 123.073 350.913C123.265 351.224 123.596 351.5 123.215 351.936C120.687 351.936 118.128 351.936 115.568 351.936C114.643 351.936 113.839 351.981 113.765 353.242C113.667 355.019 112.889 356.69 111.59 357.912C110.291 359.134 108.571 359.812 106.784 359.808C102.14 359.8 97.495 359.842 92.8554 359.761C90.8162 359.726 88.5264 360.446 87.0163 358.217C86.9391 358.121 86.8409 358.044 86.7292 357.992C86.6175 357.94 86.4952 357.914 86.3719 357.916C86.2485 357.918 86.1273 357.949 86.0176 358.005C85.9078 358.061 85.8124 358.141 85.7387 358.24C85.6409 358.314 85.5611 358.409 85.5055 358.518C85.4499 358.628 85.4198 358.748 85.4175 358.87C85.4152 358.993 85.4407 359.114 85.4922 359.225C85.5437 359.336 85.6197 359.435 85.7147 359.512C89.5095 362.782 85.5714 361.99 84.2697 362.007C75.3633 362.122 66.4539 362.12 57.5465 362.092C54.7548 362.084 51.8348 361.693 52.3358 365.992C52.3461 366.135 52.322 366.279 52.2655 366.411C52.2091 366.543 52.1219 366.66 52.0111 366.752C48.6041 368.07 49.6883 371.014 49.6683 373.428C49.5871 383.192 49.6352 392.959 49.6352 403.072C47.3976 400.895 46.7563 400.994 46.0458 403.356C45.7652 404.286 45.7903 405.33 44.5066 405.477C43.0847 405.64 42.7921 404.526 42.3312 403.569C42.0339 402.636 41.396 401.848 40.5435 401.36C38.7057 400.642 38.5974 399.216 38.6064 397.594C38.6385 392.218 38.6185 386.842 38.6185 381.465C38.1495 382.309 37.946 383.273 38.0343 384.233C38.0109 394.648 37.9858 405.062 37.9591 415.477C37.9451 419.42 37.91 419.437 33.8396 419.45C29.6761 419.462 25.5124 419.455 21.3488 419.487C20.5672 419.493 19.6664 419.599 19.6453 420.631C19.6323 421.379 20.3468 421.345 20.936 421.43C23.9422 421.884 25.5746 424.116 25.4213 427.166C25.1901 430.242 25.1566 433.331 25.321 436.412C25.5355 439.151 24.6026 439.883 21.9451 439.811C15.6561 439.641 9.35813 439.805 3.06514 439.742C0.870612 439.72 -0.219671 440.486 0.0368584 442.786C0.107032 443.652 0.117106 444.521 0.0669498 445.388C0.0238609 446.885 0.803466 447.465 2.21738 447.435C3.08818 447.417 3.95999 447.452 4.83179 447.452H6.57434V460H1924V444.559L1916.84 444.564ZM1137.31 398.432C1136.78 393.515 1138.5 391.446 1143.98 390.213C1141.5 392.803 1139.11 395.201 1137.31 398.432ZM546.979 364.431C545.259 364.665 543.565 365.064 541.921 365.62C538.265 366.817 534.818 364.946 534.48 360.979C534.128 356.873 534.379 352.712 534.407 348.575C534.414 347.42 535.132 346.968 536.239 346.749C539.96 346.178 543.727 345.964 547.489 346.109C549.239 346.099 549.915 346.907 549.881 348.575C549.837 350.787 549.87 353.001 549.87 355.214H549.883C549.883 357.139 549.802 359.068 549.904 360.987C550.018 363.124 549.131 364.158 546.979 364.431ZM1108.78 443.703C1108.78 443.521 1108.78 443.335 1108.79 443.15C1108.84 443.343 1108.91 443.533 1108.99 443.718C1108.91 443.718 1108.85 443.709 1108.78 443.703ZM1108.72 441.457C1108.65 441 1108.42 440.581 1108.07 440.279C1107.72 439.977 1107.27 439.813 1106.81 439.816C1106.5 438.383 1106.35 436.92 1106.36 435.455C1106.39 433.643 1106.95 431.833 1109.11 431.429C1110.15 431.235 1111.82 430.715 1110.99 433.058C1110.64 434.056 1111.55 434.928 1112.12 435.7C1113.07 436.96 1112.86 437.913 1111.58 438.694C1110.32 439.46 1109.06 440.224 1108.72 441.457ZM1111.22 444.564L1111.21 444.549C1109.98 443.37 1110.27 442.259 1111.51 441.361C1112.64 440.543 1113.87 439.865 1115.19 439.043C1115 440.007 1114.58 440.912 1113.98 441.686C1113.37 442.675 1113.47 443.491 1114.54 443.974C1114.91 444.145 1115.27 444.342 1115.61 444.564H1111.22ZM1127.76 442.508C1126.52 442.598 1125.54 443.221 1125.56 444.564H1121.39C1121.43 443.823 1120.6 443.315 1119.89 442.848C1119.73 442.761 1119.6 442.64 1119.5 442.493C1119.4 442.347 1119.34 442.179 1119.32 442.004C1119.12 440.507 1121.72 435.846 1123.14 435.128C1123.55 434.922 1124.14 434.657 1124.17 435.187C1124.29 437.629 1127.66 438.163 1127.4 440.88C1127.32 441.646 1128.4 441.994 1129.23 442.018C1130.07 442.042 1130.92 442.023 1131.76 442.023C1130.45 442.365 1129.1 442.529 1127.75 442.508H1127.76ZM1152.54 442.457C1151.59 442.47 1150.33 442.226 1150.49 443.854C1150.51 444.098 1150.53 444.337 1150.57 444.567H1143.82C1143.84 444.45 1143.85 444.333 1143.85 444.207C1143.92 442.677 1143.01 442.438 1141.8 442.447C1139.97 442.46 1138.14 442.447 1136.31 442.447C1136.98 442.138 1137.72 441.999 1138.46 442.043C1141.04 441.927 1143.72 442.576 1146.07 440.734C1146.97 440.027 1148.2 440.461 1149.07 441.152C1150 441.831 1151.14 442.151 1152.29 442.05C1155.01 442.026 1157.73 442.042 1160.45 442.042C1157.83 442.362 1155.18 442.5 1152.53 442.457H1152.54ZM1149.83 401.756C1149.13 401.656 1149.09 400.994 1149.04 400.423C1148.92 398.945 1148.8 397.466 1148.64 395.477C1148.62 394.847 1148.71 393.769 1150.25 393.806C1151.84 393.844 1151.56 395.058 1151.45 395.985C1151.29 397.529 1150.99 399.059 1150.71 400.589C1150.61 401.101 1150.67 401.875 1149.82 401.756H1149.83ZM1162.19 408.503C1162.18 409.202 1162.29 409.991 1161.69 410.512C1160.87 411.221 1159.95 412.369 1159.33 410.299C1159.15 409.83 1158.92 409.387 1158.63 408.981C1158.22 408.345 1157.96 407.738 1157.71 409.144C1157.58 409.908 1156.9 408.625 1156.23 409.089C1157.82 410.985 1156.63 411.413 1154.86 411.544C1154.31 411.584 1154.32 411.644 1154.23 412.669C1154.19 413.144 1153.75 413.152 1153.45 413.199C1153 413.323 1152.52 413.307 1152.08 413.152C1151.64 412.997 1151.26 412.71 1150.98 412.331C1150.78 411.953 1150.71 411.516 1150.78 411.093C1151.58 405.916 1152.41 400.743 1153.29 395.25C1155.48 396.992 1154.63 398.804 1154.19 400.487C1153.75 402.169 1153.13 403.822 1152.59 405.486C1154.48 403.841 1155.31 401.713 1156.6 399.31C1156.91 402.062 1156.06 404.34 1156.24 406.716C1157.59 404.798 1157.84 402.425 1158.82 399.785C1159.55 401.851 1159.2 403.633 1160.27 405.074C1160.68 402.121 1160.74 399.13 1160.45 396.162C1161.65 397.67 1162.3 399.538 1162.29 401.46C1162.19 403.807 1162.23 406.157 1162.18 408.503H1162.19ZM1311.1 372.383C1315.9 368.155 1318.41 362.716 1319.91 356.642C1320.65 353.636 1321.77 350.723 1322.72 347.769L1323.38 347.968C1322.46 351.082 1321.55 354.2 1320.6 357.307C1319.82 359.827 1318.94 362.315 1318.22 364.847C1317.71 366.106 1316.91 367.226 1315.88 368.112C1313.75 370.459 1311.86 373.045 1309.27 374.979C1309.51 373.912 1310.17 372.982 1311.09 372.383H1311.1ZM1314.53 394.104C1314.91 396.06 1314.19 397.133 1312.38 397.098C1311.14 397.233 1310.95 396.764 1311.06 395.365C1311.49 390.496 1311.57 385.601 1311.29 380.721C1311.37 379.524 1311.18 378.325 1310.73 377.211C1310.66 377.103 1310.62 376.981 1310.6 376.854C1310.59 376.727 1310.6 376.598 1310.65 376.478C1310.69 376.357 1310.76 376.248 1310.85 376.159C1310.94 376.07 1311.06 376.004 1311.18 375.964C1312.12 375.704 1313.12 375.236 1314.08 375.615C1314.84 375.915 1314.59 376.691 1314.45 377.312C1313.35 382.857 1313.37 388.567 1314.52 394.104H1314.53ZM1315.04 402.078V402.55H1278.98C1278.98 402.393 1278.98 402.235 1278.98 402.078H1315.04ZM1307.75 398.266C1307.79 399.186 1306.2 398.797 1305.34 398.799C1294.12 398.828 1282.91 398.832 1271.7 398.81C1271.14 398.81 1270.58 398.759 1269.65 398.71C1270.43 397.93 1270.72 397.343 1271.64 397.378C1282.84 397.812 1294.05 397.453 1305.26 397.609C1306.13 397.624 1307.7 396.998 1307.74 398.268L1307.75 398.266ZM1302.78 379.698C1303.93 379.199 1304.18 378.166 1305.03 376.704C1305.42 378.656 1305.78 380.083 1305.96 381.533C1306.05 382.218 1306.27 383.216 1305.02 383.295C1303.97 383.361 1302.89 383.339 1302.58 382.109C1302.37 381.329 1301.47 380.26 1302.77 379.698H1302.78ZM1304.27 389.656C1304.29 390.694 1302.91 390.269 1302.15 390.274C1291.5 390.347 1280.85 390.402 1270.19 390.381C1268.98 390.222 1267.8 389.927 1266.65 389.501C1266.93 389.3 1267.25 389.156 1267.58 389.078C1267.92 389.001 1268.26 388.991 1268.6 389.05C1279.76 389.04 1290.91 389.043 1302.07 389.059C1302.85 389.06 1304.25 388.695 1304.26 389.656H1304.27ZM1300.3 379.76L1300.39 379.884H1228.61V379.76H1300.3ZM1227.07 389.063C1238.15 389.029 1249.23 389.042 1260.31 389.043H1262C1260.34 390.359 1258.47 390.341 1256.55 390.328C1246.76 390.262 1236.96 390.31 1227.17 390.273C1226.32 390.273 1224.79 390.733 1224.76 389.734C1224.71 388.618 1226.23 389.065 1227.06 389.063H1227.07ZM1261.96 414.938H1261.95H1261.95H1261.96ZM1261.87 414.932H1261.84H1261.8H1261.83H1261.87ZM1261.48 414.921H1261.44H1261.46H1261.48ZM1260.29 415.179L1260.28 415.185L1260.26 415.192L1260.27 415.185L1260.29 415.179ZM1259.54 415.573L1259.53 415.58L1259.52 415.589L1259.53 415.582L1259.54 415.573ZM1213.89 402.037H1250.01L1250.02 402.587H1213.89C1213.88 402.405 1213.88 402.221 1213.88 402.038L1213.89 402.037ZM1213.1 419.321C1214.51 419.327 1214.81 418.408 1215.14 417.249C1215.41 418.513 1215.91 419.291 1217.25 419.293C1218.58 419.295 1219.13 418.557 1219.37 417.228C1219.71 418.492 1220.12 419.41 1221.61 419.319C1222.95 419.238 1223.21 418.377 1223.55 417.26C1223.72 418.557 1224.21 419.348 1225.63 419.314C1226.96 419.281 1227.34 418.53 1227.38 416.756C1228.09 418.328 1228.42 419.515 1229.98 419.3C1231.2 419.133 1231.59 418.377 1231.82 417.212C1232.11 418.51 1232.54 419.332 1233.92 419.308C1235.27 419.287 1235.83 418.572 1236.07 417.212C1236.46 418.526 1236.93 419.487 1238.49 419.308C1239.75 419.163 1239.94 418.371 1240.12 417.273C1240.14 417.605 1240.23 417.929 1240.39 418.222C1240.55 418.514 1240.77 418.768 1241.04 418.963C1241.31 419.159 1241.62 419.292 1241.95 419.352C1242.28 419.412 1242.62 419.399 1242.94 419.312C1244 419.172 1244.23 419.788 1244.3 420.719C1244.63 424.798 1244.66 424.797 1240.52 424.797C1228.66 424.797 1216.8 424.791 1204.93 424.779C1203.99 424.779 1202.65 425.278 1202.19 424.205C1201.7 422.779 1201.67 421.241 1202.09 419.795C1202.25 419.006 1203.17 419.323 1203.77 419.326C1205.13 419.335 1206.25 419.096 1206.34 417.143C1206.42 419.192 1207.63 419.384 1209.08 419.308C1210.33 419.242 1210.92 418.646 1210.85 417.241C1211.24 418.46 1211.68 419.316 1213.09 419.325L1213.1 419.321ZM1210.48 402.911C1210.48 403.013 1210.48 403.114 1210.49 403.216H1186.64L1186.63 402.911H1210.48ZM1208.21 408.441C1208.21 408.536 1208.21 408.631 1208.21 408.727H1184.46L1184.46 408.441H1208.21ZM1201.22 414.084C1194.93 414.94 1188.62 414.558 1182.31 414.628C1182.31 414.447 1182.3 414.265 1182.3 414.084H1201.22ZM1170.59 364.681C1171.03 364.436 1171.52 364.292 1172.02 364.259C1172.52 364.225 1173.02 364.304 1173.48 364.488C1174.51 364.872 1175.58 365.486 1175.41 366.717C1175.23 368.015 1173.96 367.486 1173.12 367.607C1172.77 367.635 1172.41 367.638 1172.06 367.616C1171.77 367.634 1171.49 367.63 1171.2 367.604C1170.44 367.469 1169.27 368.014 1169.09 366.805C1168.93 365.818 1169.74 365.146 1170.59 364.682L1170.59 364.681ZM1182.94 432.059C1179.02 432.059 1175.09 432.073 1171.17 432.059C1170.19 432.059 1169.04 432.227 1168.92 430.753C1168.84 430.49 1168.83 430.214 1168.86 429.943C1168.9 429.673 1168.99 429.412 1169.14 429.178C1169.28 428.944 1169.47 428.742 1169.69 428.583C1169.91 428.424 1170.17 428.312 1170.44 428.253C1172.22 427.545 1173.73 429.093 1175.27 428.284C1176.91 427.424 1178.83 429.002 1180.35 427.578C1181.26 429.19 1182.82 427.259 1183.86 428.217C1183.96 428.303 1184.22 428.378 1184.25 428.344C1185.46 426.623 1187.29 429.542 1188.61 427.768C1188.86 427.428 1189.69 428.79 1190.37 428.351C1192.08 427.26 1193.67 428.751 1195.36 428.433C1196.77 428.166 1197.12 429.182 1197.09 430.444C1197.07 431.811 1196.31 432.079 1195.14 432.072C1191.07 432.045 1187 432.06 1182.94 432.06L1182.94 432.059ZM1196.87 442.589C1196.87 442.697 1196.84 442.804 1196.8 442.902C1196.75 443 1196.68 443.086 1196.6 443.155C1196.52 443.224 1196.42 443.275 1196.31 443.302C1196.21 443.33 1196.1 443.334 1195.99 443.315C1195.59 443.229 1195.49 442.809 1195.49 442.458C1195.46 441.25 1195.48 440.041 1195.48 438.833H1195.47C1195.47 437.557 1195.45 436.281 1195.48 435.006C1195.49 434.564 1195.69 434.152 1196.23 434.138C1196.77 434.124 1197 434.504 1197.05 434.952C1197.23 437.498 1197.17 440.056 1196.86 442.59L1196.87 442.589ZM1251.05 421.771C1251.19 427.682 1251.1 433.598 1251.08 439.512C1251.08 440.247 1251.3 441.068 1250.53 441.808C1249.84 440.963 1249.51 439.885 1249.6 438.801C1249.6 436.877 1249.57 434.953 1249.59 433.029C1249.62 431.322 1248.44 431.284 1247.25 431.332C1246.03 431.378 1244.45 430.949 1244.35 432.929C1244.26 434.848 1244.33 436.775 1244.31 438.698C1244.33 439.262 1244.28 439.827 1244.15 440.377C1243.95 441.015 1243.86 441.859 1242.88 441.873C1241.86 441.89 1241.84 441.028 1241.68 440.377C1241.35 438.264 1241.29 436.118 1241.49 433.99C1241.53 432.154 1241.08 431.231 1238.99 431.261C1237.04 431.289 1236.28 431.942 1236.43 433.905C1236.56 435.611 1236.55 437.325 1236.42 439.03C1236.34 440.079 1236.56 441.74 1235.11 441.772C1233.59 441.806 1233.82 440.138 1233.76 439.09C1233.63 437.241 1233.63 435.386 1233.74 433.536C1233.86 431.617 1232.85 431.266 1231.25 431.293C1229.69 431.319 1228.34 431.368 1228.43 433.489C1228.5 435.195 1228.46 436.909 1228.44 438.618C1228.45 439.252 1228.38 439.886 1228.23 440.502C1228.07 441.076 1227.96 441.88 1227.07 441.782C1226.33 441.699 1226.31 440.983 1226.2 440.46C1225.88 438.346 1225.83 436.202 1226.03 434.074C1226.09 432.112 1225.54 431.247 1223.39 431.259C1221.3 431.271 1220.58 432.065 1220.7 434.054C1220.82 435.974 1220.83 437.899 1220.73 439.821C1220.69 440.601 1220.57 441.744 1219.47 441.77C1218.4 441.794 1218.42 440.628 1218.37 439.967C1218.21 437.766 1218.17 435.557 1218.24 433.351C1218.3 431.286 1217 431.319 1215.55 431.3C1214.05 431.279 1212.84 431.4 1212.9 433.405C1212.97 435.679 1212.88 437.96 1212.74 440.233C1212.7 440.858 1212.63 441.829 1211.62 441.762C1210.79 441.707 1210.74 440.829 1210.69 440.265C1210.53 438.64 1210.49 437.001 1210.49 435.368C1210.46 431.342 1210.46 431.321 1207.9 431.315C1205.22 431.308 1205.2 431.34 1205.2 435.472C1205.2 436.683 1205.2 437.896 1205.25 439.105C1205.3 439.744 1205.2 440.388 1204.96 440.979C1204.77 441.378 1204.57 441.783 1204.08 441.813C1203.44 441.852 1203.29 441.357 1203.12 440.862C1202.55 439.118 1202.83 437.325 1202.81 435.554C1202.77 431.53 1202.8 431.53 1198.94 431.038C1199.6 431.009 1200.25 430.958 1200.9 430.957C1202.05 430.957 1202.89 430.684 1202.78 429.274C1202.7 428.324 1202.92 427.525 1204.14 427.605C1205.24 427.678 1205.35 428.455 1205.27 429.294C1205.06 431.374 1206.62 430.961 1207.72 430.925C1208.84 430.889 1210.58 431.554 1210.4 429.295C1210.33 428.328 1210.53 427.565 1211.74 427.591C1212.94 427.617 1213.09 428.431 1213 429.367C1212.84 431.064 1214.06 431.04 1215.12 430.927C1216.29 430.804 1218.09 431.703 1218.2 429.419C1218.25 428.538 1218.17 427.614 1219.44 427.606C1220.79 427.597 1220.86 428.504 1220.77 429.521C1220.67 430.561 1221.27 430.918 1222.2 430.939C1222.77 430.953 1223.34 430.948 1223.91 430.96C1225.26 430.986 1226.42 430.902 1225.93 428.977C1225.73 428.214 1226.16 427.606 1227.11 427.58C1227.29 427.552 1227.47 427.563 1227.64 427.613C1227.81 427.663 1227.97 427.751 1228.11 427.87C1228.25 427.989 1228.35 428.136 1228.42 428.301C1228.5 428.466 1228.53 428.645 1228.52 428.824C1228.59 429.557 1228.16 430.57 1229.24 430.804C1230.56 431.148 1231.96 431.118 1233.26 430.716C1234.02 430.451 1233.74 429.632 1233.72 429.007C1233.68 428.194 1233.91 427.61 1234.88 427.586C1235.77 427.566 1236.34 428.035 1236.27 428.843C1236.07 431.085 1237.53 430.962 1239.03 430.969C1240.5 430.976 1241.82 430.983 1241.64 428.898C1241.57 428.1 1242.08 427.601 1242.98 427.577C1243.17 427.543 1243.38 427.558 1243.57 427.622C1243.76 427.686 1243.93 427.796 1244.07 427.942C1244.21 428.089 1244.31 428.267 1244.36 428.461C1244.41 428.655 1244.41 428.858 1244.36 429.053C1244.09 431.174 1245.53 430.961 1246.82 430.949C1248.14 430.935 1248.95 430.949 1249.71 429.122C1251.41 425.03 1250.56 420.939 1250.86 416.857C1251 414.979 1250.13 414.531 1248.46 414.562C1245.09 414.63 1241.73 414.599 1238.37 414.562C1237.56 414.554 1236.64 414.819 1235.9 413.897C1237.98 412.515 1239.94 411.672 1242.41 413.159C1244.87 414.646 1247.23 413.777 1249.22 412.25C1252.18 415.028 1250.96 418.545 1251.04 421.772L1251.05 421.771ZM1223.88 398.818C1223.31 398.818 1222.73 398.824 1222.16 398.791C1221.75 398.766 1221.17 398.777 1221.15 398.25C1221.12 397.536 1221.8 397.652 1222.26 397.605C1222.69 397.575 1223.12 397.567 1223.54 397.581C1234.4 397.581 1245.25 397.583 1256.1 397.588C1257.13 397.588 1258.27 397.35 1259.31 398.816H1253.44L1223.88 398.818ZM1259.26 415.767H1259.25L1259.24 415.772H1259.25L1259.26 415.767ZM1261.73 442.909C1260.59 442.84 1259.44 442.886 1258.3 442.901C1255.13 442.945 1255.13 442.949 1255.13 439.685C1255.13 433.282 1255.14 426.878 1255.12 420.476C1255.12 419.178 1255.29 418.039 1256.79 417.64C1256.32 418.079 1255.96 418.615 1255.73 419.211C1255.5 419.806 1255.41 420.445 1255.46 421.08C1255.5 427.406 1255.52 433.733 1255.46 440.059C1255.44 441.855 1255.98 442.623 1257.9 442.569C1264.5 442.383 1263.61 443.508 1263.66 436.993C1263.7 430.952 1263.64 424.909 1263.68 418.868C1263.77 418.163 1263.69 417.45 1263.46 416.779C1263.22 416.109 1262.84 415.498 1262.35 414.992C1262.89 415.173 1263.35 415.537 1263.66 416.022C1263.96 416.508 1264.09 417.084 1264.01 417.65C1263.97 425.335 1263.96 433.019 1264.02 440.703C1264.01 442.407 1263.33 443.007 1261.71 442.91L1261.73 442.909ZM1231.29 382.135C1230.64 382.135 1230 382.167 1229.36 382.112C1228.84 382.067 1227.98 382.26 1228.03 381.464C1228.08 380.735 1228.91 380.937 1229.45 380.887C1229.87 380.848 1230.3 380.874 1230.73 380.874C1253.25 380.874 1275.76 380.882 1298.28 380.897C1299.2 380.897 1300.92 380.455 1300.89 381.443C1300.83 382.684 1299.14 382.103 1298.19 382.107C1286.97 382.152 1275.75 382.136 1264.52 382.136L1231.29 382.135ZM1273.93 440.359C1273.97 442.354 1273.23 443.053 1271.31 442.911C1269.88 442.826 1268.45 442.822 1267.02 442.898C1265.54 442.955 1265.02 442.285 1265.02 440.843C1265.06 433.082 1265.06 425.32 1265.03 417.558C1265.03 416.366 1265.34 415.454 1266.59 415.098C1266.15 415.557 1265.81 416.104 1265.59 416.704C1265.38 417.304 1265.29 417.943 1265.35 418.578C1265.39 425.689 1265.42 432.801 1265.33 439.911C1265.3 441.975 1266.03 442.634 1268.07 442.571C1274.29 442.38 1273.49 443.424 1273.54 437.128C1273.57 432.648 1273.4 428.161 1273.6 423.69C1273.74 420.667 1273.42 418.059 1270.54 416.39C1272.98 417.267 1274.04 418.826 1273.96 421.561C1273.75 427.828 1273.81 434.1 1273.92 440.364L1273.93 440.359ZM1318.53 433.502C1318.58 435.566 1318.63 437.636 1318.53 439.697C1318.5 440.484 1318.38 441.693 1317.4 441.744C1316.17 441.808 1316.13 440.508 1316.09 439.667C1315.99 437.535 1316.03 435.394 1316.1 433.258C1316.17 431.139 1314.71 431.327 1313.33 431.308C1311.95 431.289 1310.7 431.347 1310.79 433.274C1310.86 434.838 1310.81 436.409 1310.79 437.975C1310.85 438.614 1310.81 439.257 1310.68 439.885C1310.46 440.631 1310.63 441.875 1309.45 441.842C1308.14 441.806 1308.34 440.467 1308.29 439.687C1308.17 437.767 1308.18 435.842 1308.31 433.923C1308.42 432.01 1307.69 431.276 1305.71 431.259C1303.67 431.241 1302.9 431.915 1302.99 433.981C1303.19 436.108 1303.14 438.252 1302.83 440.368C1302.72 440.944 1302.72 441.789 1301.83 441.784C1300.98 441.779 1300.79 440.945 1300.76 440.387C1300.6 438.191 1300.55 435.989 1300.61 433.789C1300.69 431.735 1299.69 431.283 1297.86 431.262C1295.94 431.239 1295.11 431.861 1295.27 433.857C1295.39 435.634 1295.39 437.418 1295.26 439.195C1295.19 440.184 1295.34 441.739 1294 441.766C1292.47 441.797 1292.68 440.149 1292.6 439.123C1292.46 437.347 1292.46 435.563 1292.58 433.785C1292.7 431.936 1292.01 431.263 1290.13 431.26C1288.19 431.26 1287.4 431.898 1287.53 433.877C1287.67 435.725 1287.66 437.581 1287.49 439.426C1287.4 440.345 1287.59 441.952 1286.03 441.786C1284.76 441.651 1284.73 440.273 1284.7 439.216C1284.66 437.578 1284.72 435.94 1284.71 434.301C1284.7 431.534 1284.45 431.4 1281.87 431.27C1279.57 431.155 1279.37 432.386 1279.39 434.192C1279.41 436.318 1279.69 438.468 1279.16 440.572C1279.06 440.991 1279.11 441.731 1278.36 441.57C1277.86 441.459 1277.94 440.877 1277.94 440.472C1277.92 432.066 1277.94 423.659 1277.88 415.253C1277.87 413.872 1279.89 413.756 1279.17 411.774C1282.12 414.069 1284.59 414.418 1287.3 412.834C1289.44 411.578 1291.24 412.767 1293.15 413.875C1292.43 414.76 1291.53 414.559 1290.73 414.566C1287.3 414.594 1283.87 414.62 1280.43 414.566C1278.84 414.54 1278.08 415.018 1278.15 416.77C1278.26 419.757 1278.11 422.753 1278.18 425.743C1278.21 427.417 1279.35 428.792 1279.83 430.372C1280.19 431.559 1282.27 430.918 1283.59 430.883C1284.68 430.855 1284.69 430.016 1284.65 429.167C1284.61 428.317 1284.85 427.608 1285.93 427.585C1287.08 427.559 1287.45 428.234 1287.4 429.221C1287.3 431.354 1288.87 430.929 1290.08 430.939C1291.31 430.95 1292.84 431.303 1292.71 429.177C1292.65 428.185 1293.09 427.514 1294.23 427.597C1295.41 427.683 1295.31 428.519 1295.21 429.32C1295.06 430.591 1295.77 430.994 1296.87 430.94C1298.56 430.859 1300.87 431.753 1300.58 428.534C1300.51 427.764 1301.27 427.552 1301.99 427.596C1302.71 427.64 1302.99 428.057 1302.98 428.727C1302.97 429.541 1302.57 430.613 1303.8 430.822C1305.12 431.166 1306.51 431.109 1307.8 430.66C1308.43 430.386 1308.23 429.687 1308.21 429.122C1308.19 428.219 1308.5 427.595 1309.55 427.594C1309.73 427.569 1309.91 427.589 1310.08 427.651C1310.25 427.713 1310.41 427.815 1310.53 427.949C1310.65 428.084 1310.74 428.245 1310.79 428.421C1310.83 428.597 1310.84 428.781 1310.8 428.958C1310.57 431.335 1312.27 430.906 1313.65 430.954C1315.02 431.002 1316.32 431.022 1316 428.974C1315.96 428.797 1315.96 428.612 1316.01 428.436C1316.05 428.259 1316.14 428.096 1316.26 427.96C1316.38 427.823 1316.53 427.718 1316.7 427.652C1316.87 427.587 1317.06 427.563 1317.24 427.583C1318.28 427.549 1318.76 428.142 1318.62 429.034C1318.41 430.42 1318.88 431.104 1320.5 431.123C1318.69 431.195 1318.49 432.229 1318.52 433.508L1318.53 433.502ZM1321 420.85C1320.87 421.548 1320.72 422.247 1320.65 422.953C1320.65 423.221 1320.6 423.486 1320.49 423.731C1320.39 423.976 1320.23 424.195 1320.02 424.371C1319.82 424.547 1319.58 424.676 1319.33 424.75C1319.07 424.824 1318.8 424.84 1318.53 424.798C1307.88 424.772 1297.23 424.772 1286.58 424.798C1285.16 424.798 1284.67 424.199 1284.71 422.865C1284.77 421.043 1284.07 418.804 1287.35 419.198C1288.48 419.335 1288.43 418.1 1288.93 416.896C1288.99 418.572 1289.51 419.371 1290.93 419.3C1292.21 419.236 1292.76 418.62 1292.72 417.19C1293.32 418.394 1293.75 419.467 1295.29 419.311C1296.57 419.183 1296.94 418.437 1297.09 417.197C1297.49 418.508 1297.93 419.36 1299.43 419.259C1300.76 419.169 1301.07 418.38 1301.35 417.206C1301.74 418.494 1302.18 419.487 1303.74 419.302C1305.01 419.152 1305.34 418.392 1305.43 417.189C1305.72 418.487 1306.16 419.315 1307.55 419.305C1308.89 419.295 1309.44 418.587 1309.54 417.166C1309.92 418.575 1310.48 419.398 1311.92 419.283C1313.14 419.183 1313.72 418.559 1313.78 417.173C1314.22 418.432 1314.58 419.416 1316.07 419.311C1317.42 419.216 1317.85 418.425 1318.04 417.188C1318.33 418.294 1318.45 419.306 1319.87 419.247C1320.92 419.209 1321.14 419.939 1320.98 420.856L1321 420.85ZM1325.83 440.696C1325.7 441.188 1325.57 441.727 1324.95 441.751C1324.3 441.775 1324.16 441.196 1324.04 440.73C1323.45 438.486 1323.98 436.2 1323.82 433.938C1323.75 432.926 1324.12 431.772 1322.5 431.075C1323.78 430.94 1324.14 431.374 1324.44 431.88C1325.27 433.176 1325.82 434.629 1326.06 436.147C1326.3 437.666 1326.21 439.217 1325.82 440.702L1325.83 440.696ZM1322.93 404.618C1322.86 403.568 1322.9 402.123 1324.22 402.079C1326.27 402.016 1325.74 403.853 1325.94 405.022C1325.91 405.585 1325.92 406.084 1325.86 406.574C1325.71 407.728 1324.85 407.94 1323.97 407.682C1322.26 407.194 1322.98 405.712 1322.91 404.624L1322.93 404.618ZM1327.38 395.054C1325.67 395.886 1323.6 395.453 1321.69 395.254C1320.9 395.169 1320.81 394.403 1320.8 393.745C1320.79 391.039 1320.73 388.331 1320.83 385.628C1320.8 385.161 1320.88 384.694 1321.05 384.258C1321.22 383.823 1321.48 383.429 1321.82 383.104C1322.16 382.778 1322.56 382.529 1323.01 382.373C1323.45 382.216 1323.92 382.157 1324.39 382.197C1324.87 382.152 1325.36 382.212 1325.82 382.374C1326.27 382.535 1326.69 382.793 1327.04 383.13C1327.39 383.468 1327.66 383.877 1327.83 384.329C1328 384.78 1328.07 385.264 1328.04 385.746C1328.1 387.026 1328.05 388.309 1328.05 389.591H1328.07C1328.1 390.16 1328.1 390.73 1328.06 391.299C1327.89 392.595 1328.72 394.402 1327.36 395.06L1327.38 395.054ZM1336.55 397.05C1334.81 397.395 1333.68 396.186 1334.29 394.156C1335.43 390.306 1334.54 386.356 1335.26 382.343C1335 380.846 1334.73 379.189 1334.4 377.543C1334.27 376.845 1333.91 376.059 1334.67 375.611C1335.47 375.138 1336.35 375.59 1337.14 375.863C1337.3 375.915 1337.44 375.999 1337.56 376.109C1337.68 376.22 1337.78 376.354 1337.84 376.503C1337.91 376.652 1337.94 376.814 1337.94 376.977C1337.95 377.14 1337.91 377.301 1337.85 377.45C1336.63 381.636 1337.42 385.872 1337.47 390.088C1337.46 391.363 1337.61 392.634 1337.91 393.873C1338.21 395.121 1338.46 396.68 1336.53 397.059L1336.55 397.05ZM1338.33 374.117C1336.09 371.626 1333.88 369.114 1331.68 366.582C1331.26 366.098 1330.94 365.537 1330.74 364.929C1329.06 359.564 1327.41 354.187 1325.77 348.809C1325.73 348.535 1325.72 348.257 1325.76 347.982C1326.63 348.104 1326.58 348.78 1326.74 349.279C1328.11 353.549 1329.58 357.792 1330.81 362.105C1331.55 364.782 1332.98 367.221 1334.95 369.182C1336.68 370.927 1338.25 372.821 1339.97 374.74C1338.93 375.147 1338.65 374.5 1338.31 374.126L1338.33 374.117ZM1347.67 398.184C1343.99 398.211 1342.66 397.368 1342.63 395.164C1342.6 393.315 1342.63 391.463 1342.63 388.909C1342.47 385.592 1342.7 382.268 1343.32 379.005C1343.51 378.146 1343.59 376.92 1344.9 377.156C1346.25 377.398 1348.18 376.838 1348.63 378.852C1349.84 384.191 1349.86 389.73 1348.68 395.078C1348.62 395.354 1348.53 395.622 1348.4 395.876C1348.03 396.629 1349.95 398.175 1347.65 398.193L1347.67 398.184ZM1405.02 428.107C1404.92 428.627 1404.83 429.147 1404.73 429.667C1404.21 429.815 1403.68 429.958 1403.16 430.113C1400.48 430.964 1398.01 432.395 1395.94 434.304C1395.29 434.058 1394.62 433.885 1393.94 433.788C1391.93 433.489 1391.39 432.679 1391.91 430.794C1392.38 429.098 1392.63 427.351 1393.05 425.323C1394.06 426.592 1394.76 427.005 1394.88 425.146C1394.91 423.989 1395.38 422.889 1396.19 422.06C1396.92 421.345 1397.55 419.902 1398.64 420.409C1399.66 420.884 1399.58 422.386 1399.52 423.518C1399.39 426.134 1400.52 427.073 1403.02 426.355C1404.95 425.801 1405.38 426.17 1405.02 428.107ZM1404.27 420.378C1404.36 420.443 1404.43 420.528 1404.47 420.627C1404.52 420.725 1404.54 420.832 1404.54 420.941C1404.53 421.049 1404.5 421.154 1404.44 421.247C1404.39 421.34 1404.31 421.419 1404.22 421.475C1403.47 422.132 1402.55 422.55 1401.56 422.673C1400.94 422.668 1401.03 421.934 1401.05 421.463C1401.05 420.407 1401.12 419.354 1401.27 418.308C1401.55 416.672 1402.57 415.952 1404.56 416.228C1403.08 417.647 1402.94 419.001 1404.27 420.378ZM1406.94 411.995C1406.58 412.463 1405.33 412.893 1406.77 413.718C1407.37 414.061 1406.56 414.416 1406.28 414.502C1405.53 414.688 1404.77 414.834 1404 414.937C1403.52 415.058 1403.01 415.05 1402.53 414.914C1402.05 414.778 1401.61 414.519 1401.26 414.162C1400.38 413.249 1399.09 413.155 1397.96 412.753C1397.68 412.682 1397.43 412.522 1397.25 412.296C1397.08 412.07 1396.98 411.792 1396.97 411.504C1396.97 411.286 1397.05 411.075 1397.2 410.915C1397.35 410.754 1397.56 410.655 1397.77 410.638C1401.06 410.35 1403.68 407.89 1407.02 407.824C1407.68 407.81 1408.52 407.248 1408.95 408.103C1409.09 408.474 1409.12 408.874 1409.05 409.263C1408.98 409.652 1408.81 410.015 1408.55 410.315C1408.12 410.948 1407.41 411.384 1406.94 411.997V411.995ZM1408.46 428.661C1408.53 428.542 1408.59 428.423 1408.64 428.301C1408.87 427.802 1409.42 427.004 1410.08 427.255C1410.25 427.331 1410.4 427.451 1410.51 427.603C1410.61 427.755 1410.68 427.933 1410.69 428.118C1409.95 428.297 1409.21 428.48 1408.46 428.666V428.661Z" fill="#100E0E" fill-opacity="0.35"/>
</svg>
